<svg xmlns="http://www.w3.org/2000/svg" xmlns:xlink="http://www.w3.org/1999/xlink" width="300" zoomAndPan="magnify" viewBox="0 0 224.87999 37.5" height="50" preserveAspectRatio="xMidYMid meet" version="1.0"><defs><g/><clipPath id="62d5f267b1"><path d="M 92.621094 18.503906 L 121.488281 18.503906 L 121.488281 19.984375 L 92.621094 19.984375 Z M 92.621094 18.503906 " clip-rule="nonzero"/></clipPath><clipPath id="717526b76d"><path d="M 214 8 L 223.339844 8 L 223.339844 29 L 214 29 Z M 214 8 " clip-rule="nonzero"/></clipPath></defs><g clip-path="url(#62d5f267b1)"><path fill="#f46f0f" d="M 92.746094 18.644531 L 121.488281 18.507812 L 121.488281 19.707031 L 92.621094 19.980469 Z M 92.746094 18.644531 " fill-opacity="1" fill-rule="nonzero"/></g><g fill="#000000" fill-opacity="1"><g transform="translate(1.42405, 26.903606)"><g><path d="M 5.46875 -14.453125 L 5.46875 -10.34375 L 11.71875 -10.34375 L 11.71875 -7.296875 L 5.46875 -7.296875 L 5.46875 -3.09375 L 13.265625 -3.09375 L 13.265625 0 L 1.90625 0 L 1.90625 -17.546875 L 13.265625 -17.546875 L 13.265625 -14.453125 Z M 5.46875 -14.453125 "/></g></g></g><g fill="#000000" fill-opacity="1"><g transform="translate(15.710847, 26.903606)"><g><path d="M 3.890625 -6.46875 L 0.359375 -12.90625 L 4.046875 -12.90625 L 6.109375 -8.90625 L 8.203125 -12.90625 L 11.890625 -12.90625 L 8.234375 -6.578125 L 11.890625 0 L 8.203125 0 L 6.109375 -3.953125 L 4.046875 0 L 0.359375 0 Z M 3.890625 -6.46875 "/></g></g></g><g fill="#000000" fill-opacity="1"><g transform="translate(27.934571, 26.903606)"><g><path d="M 1.59375 -12.90625 L 5.03125 -12.90625 L 5.03125 -12.203125 C 5.695312 -12.597656 6.257812 -12.863281 6.71875 -13 C 7.175781 -13.132812 7.660156 -13.203125 8.171875 -13.203125 C 9.828125 -13.203125 11.050781 -12.65625 11.84375 -11.5625 C 12.644531 -10.476562 13.046875 -8.738281 13.046875 -6.34375 C 13.046875 -4.695312 12.847656 -3.390625 12.453125 -2.421875 C 12.054688 -1.460938 11.4375 -0.765625 10.59375 -0.328125 C 9.757812 0.0976562 8.644531 0.3125 7.25 0.3125 C 6.5625 0.3125 5.832031 0.242188 5.0625 0.109375 L 5.0625 5.421875 L 1.59375 5.421875 Z M 6.90625 -2.6875 C 7.875 -2.6875 8.554688 -2.960938 8.953125 -3.515625 C 9.347656 -4.078125 9.546875 -5.019531 9.546875 -6.34375 C 9.546875 -7.65625 9.363281 -8.609375 9 -9.203125 C 8.644531 -9.804688 8.050781 -10.109375 7.21875 -10.109375 C 6.613281 -10.109375 5.992188 -9.976562 5.359375 -9.71875 L 5.0625 -9.59375 L 5.0625 -2.84375 C 5.832031 -2.738281 6.445312 -2.6875 6.90625 -2.6875 Z M 6.90625 -2.6875 "/></g></g></g><g fill="#000000" fill-opacity="1"><g transform="translate(41.963484, 26.903606)"><g><path d="M 1.59375 -12.90625 L 5.03125 -12.90625 L 5.03125 -11.53125 C 6.507812 -12.394531 7.882812 -12.953125 9.15625 -13.203125 L 9.15625 -9.71875 C 7.863281 -9.46875 6.671875 -9.171875 5.578125 -8.828125 L 5.0625 -8.640625 L 5.0625 0 L 1.59375 0 Z M 1.59375 -12.90625 "/></g></g></g><g fill="#000000" fill-opacity="1"><g transform="translate(51.556784, 26.903606)"><g><path d="M 6.65625 0.3125 C 4.644531 0.3125 3.191406 -0.191406 2.296875 -1.203125 C 1.398438 -2.222656 0.953125 -3.867188 0.953125 -6.140625 C 0.953125 -8.515625 1.421875 -10.285156 2.359375 -11.453125 C 3.296875 -12.617188 4.753906 -13.203125 6.734375 -13.203125 C 8.554688 -13.203125 9.9375 -12.71875 10.875 -11.75 C 11.8125 -10.78125 12.28125 -9.320312 12.28125 -7.375 L 12.015625 -4.984375 L 4.4375 -4.984375 C 4.46875 -4.378906 4.570312 -3.914062 4.75 -3.59375 C 4.9375 -3.28125 5.234375 -3.054688 5.640625 -2.921875 C 6.046875 -2.796875 6.609375 -2.734375 7.328125 -2.734375 C 7.890625 -2.734375 8.566406 -2.75 9.359375 -2.78125 C 10.148438 -2.820312 10.726562 -2.859375 11.09375 -2.890625 L 11.8125 -2.96875 L 11.859375 -0.40625 C 9.921875 0.0703125 8.1875 0.3125 6.65625 0.3125 Z M 8.875 -7.609375 C 8.875 -8.640625 8.710938 -9.359375 8.390625 -9.765625 C 8.078125 -10.171875 7.515625 -10.375 6.703125 -10.375 C 5.878906 -10.375 5.296875 -10.160156 4.953125 -9.734375 C 4.609375 -9.316406 4.425781 -8.609375 4.40625 -7.609375 Z M 8.875 -7.609375 "/></g></g></g><g fill="#000000" fill-opacity="1"><g transform="translate(64.708888, 26.903606)"><g><path d="M 6.109375 0.3125 C 4.972656 0.3125 3.585938 0.15625 1.953125 -0.15625 L 1.140625 -0.3125 L 1.234375 -3.203125 C 3.316406 -2.921875 4.832031 -2.78125 5.78125 -2.78125 C 6.414062 -2.78125 6.914062 -2.847656 7.28125 -2.984375 C 7.65625 -3.128906 7.84375 -3.390625 7.84375 -3.765625 C 7.84375 -4.109375 7.664062 -4.359375 7.3125 -4.515625 C 6.957031 -4.671875 6.367188 -4.816406 5.546875 -4.953125 C 5.234375 -4.984375 5.019531 -5.019531 4.90625 -5.0625 C 4.039062 -5.207031 3.332031 -5.394531 2.78125 -5.625 C 2.226562 -5.863281 1.78125 -6.234375 1.4375 -6.734375 C 1.09375 -7.242188 0.921875 -7.957031 0.921875 -8.875 C 0.921875 -10.332031 1.367188 -11.414062 2.265625 -12.125 C 3.160156 -12.832031 4.390625 -13.1875 5.953125 -13.1875 C 6.890625 -13.1875 8.257812 -13.019531 10.0625 -12.6875 L 10.90625 -12.53125 L 10.859375 -9.671875 C 8.773438 -9.953125 7.238281 -10.09375 6.25 -10.09375 C 5.65625 -10.09375 5.191406 -10.03125 4.859375 -9.90625 C 4.523438 -9.78125 4.359375 -9.546875 4.359375 -9.203125 C 4.359375 -8.847656 4.53125 -8.597656 4.875 -8.453125 C 5.21875 -8.304688 5.773438 -8.160156 6.546875 -8.015625 L 7.453125 -7.875 C 8.828125 -7.59375 9.804688 -7.179688 10.390625 -6.640625 C 10.972656 -6.097656 11.265625 -5.226562 11.265625 -4.03125 C 11.265625 -2.550781 10.84375 -1.457031 10 -0.75 C 9.164062 -0.0390625 7.867188 0.3125 6.109375 0.3125 Z M 6.109375 0.3125 "/></g></g></g><g fill="#000000" fill-opacity="1"><g transform="translate(76.881036, 26.903606)"><g><path d="M 6.109375 0.3125 C 4.972656 0.3125 3.585938 0.15625 1.953125 -0.15625 L 1.140625 -0.3125 L 1.234375 -3.203125 C 3.316406 -2.921875 4.832031 -2.78125 5.78125 -2.78125 C 6.414062 -2.78125 6.914062 -2.847656 7.28125 -2.984375 C 7.65625 -3.128906 7.84375 -3.390625 7.84375 -3.765625 C 7.84375 -4.109375 7.664062 -4.359375 7.3125 -4.515625 C 6.957031 -4.671875 6.367188 -4.816406 5.546875 -4.953125 C 5.234375 -4.984375 5.019531 -5.019531 4.90625 -5.0625 C 4.039062 -5.207031 3.332031 -5.394531 2.78125 -5.625 C 2.226562 -5.863281 1.78125 -6.234375 1.4375 -6.734375 C 1.09375 -7.242188 0.921875 -7.957031 0.921875 -8.875 C 0.921875 -10.332031 1.367188 -11.414062 2.265625 -12.125 C 3.160156 -12.832031 4.390625 -13.1875 5.953125 -13.1875 C 6.890625 -13.1875 8.257812 -13.019531 10.0625 -12.6875 L 10.90625 -12.53125 L 10.859375 -9.671875 C 8.773438 -9.953125 7.238281 -10.09375 6.25 -10.09375 C 5.65625 -10.09375 5.191406 -10.03125 4.859375 -9.90625 C 4.523438 -9.78125 4.359375 -9.546875 4.359375 -9.203125 C 4.359375 -8.847656 4.53125 -8.597656 4.875 -8.453125 C 5.21875 -8.304688 5.773438 -8.160156 6.546875 -8.015625 L 7.453125 -7.875 C 8.828125 -7.59375 9.804688 -7.179688 10.390625 -6.640625 C 10.972656 -6.097656 11.265625 -5.226562 11.265625 -4.03125 C 11.265625 -2.550781 10.84375 -1.457031 10 -0.75 C 9.164062 -0.0390625 7.867188 0.3125 6.109375 0.3125 Z M 6.109375 0.3125 "/></g></g></g><g fill="#000000" fill-opacity="1"><g transform="translate(125.033506, 28.21769)"><g><path d="M 5.703125 -7.46875 L 0 -18.484375 L 4.15625 -18.484375 L 7.546875 -11.109375 L 10.953125 -18.484375 L 15.109375 -18.484375 L 9.453125 -7.46875 L 9.453125 0 L 5.703125 0 Z M 5.703125 -7.46875 "/></g></g></g><g fill="#000000" fill-opacity="1"><g transform="translate(140.164941, 28.21769)"><g><path d="M 7.234375 0.328125 C 5.179688 0.328125 3.625 -0.289062 2.5625 -1.53125 C 1.507812 -2.769531 0.984375 -4.53125 0.984375 -6.8125 C 0.984375 -9.082031 1.507812 -10.832031 2.5625 -12.0625 C 3.625 -13.289062 5.179688 -13.90625 7.234375 -13.90625 C 9.273438 -13.90625 10.828125 -13.289062 11.890625 -12.0625 C 12.953125 -10.832031 13.484375 -9.082031 13.484375 -6.8125 C 13.484375 -4.53125 12.953125 -2.769531 11.890625 -1.53125 C 10.828125 -0.289062 9.273438 0.328125 7.234375 0.328125 Z M 7.234375 -2.765625 C 8.097656 -2.765625 8.738281 -3.082031 9.15625 -3.71875 C 9.570312 -4.351562 9.78125 -5.382812 9.78125 -6.8125 C 9.78125 -8.25 9.570312 -9.273438 9.15625 -9.890625 C 8.738281 -10.503906 8.097656 -10.8125 7.234375 -10.8125 C 6.359375 -10.8125 5.710938 -10.503906 5.296875 -9.890625 C 4.878906 -9.273438 4.671875 -8.25 4.671875 -6.8125 C 4.671875 -5.382812 4.878906 -4.351562 5.296875 -3.71875 C 5.710938 -3.082031 6.359375 -2.765625 7.234375 -2.765625 Z M 7.234375 -2.765625 "/></g></g></g><g fill="#000000" fill-opacity="1"><g transform="translate(154.617224, 28.21769)"><g><path d="M 6.09375 0.328125 C 4.925781 0.328125 4.007812 0.09375 3.34375 -0.375 C 2.6875 -0.851562 2.222656 -1.578125 1.953125 -2.546875 C 1.679688 -3.523438 1.546875 -4.832031 1.546875 -6.46875 L 1.546875 -13.578125 L 5.1875 -13.578125 L 5.1875 -6.40625 C 5.1875 -5.425781 5.234375 -4.695312 5.328125 -4.21875 C 5.421875 -3.738281 5.601562 -3.40625 5.875 -3.21875 C 6.15625 -3.03125 6.585938 -2.9375 7.171875 -2.9375 C 7.585938 -2.9375 7.960938 -2.972656 8.296875 -3.046875 C 8.628906 -3.117188 9.097656 -3.242188 9.703125 -3.421875 L 9.703125 -13.578125 L 13.34375 -13.578125 L 13.34375 0 L 9.734375 0 L 9.734375 -0.765625 C 8.972656 -0.347656 8.320312 -0.0625 7.78125 0.09375 C 7.25 0.25 6.6875 0.328125 6.09375 0.328125 Z M 6.09375 0.328125 "/></g></g></g><g fill="#000000" fill-opacity="1"><g transform="translate(169.639994, 28.21769)"><g><path d="M 1.6875 -13.578125 L 5.296875 -13.578125 L 5.296875 -12.140625 C 6.859375 -13.046875 8.304688 -13.632812 9.640625 -13.90625 L 9.640625 -10.25 C 8.285156 -9.976562 7.03125 -9.660156 5.875 -9.296875 L 5.328125 -9.109375 L 5.328125 0 L 1.6875 0 Z M 1.6875 -13.578125 "/></g></g></g><g fill="#000000" fill-opacity="1"><g transform="translate(179.745726, 28.21769)"><g><path d="M 6.4375 0.328125 C 5.238281 0.328125 3.78125 0.164062 2.0625 -0.15625 L 1.203125 -0.328125 L 1.296875 -3.375 C 3.492188 -3.082031 5.09375 -2.9375 6.09375 -2.9375 C 6.757812 -2.9375 7.285156 -3.007812 7.671875 -3.15625 C 8.066406 -3.300781 8.265625 -3.570312 8.265625 -3.96875 C 8.265625 -4.332031 8.078125 -4.59375 7.703125 -4.75 C 7.328125 -4.914062 6.707031 -5.070312 5.84375 -5.21875 C 5.519531 -5.25 5.289062 -5.285156 5.15625 -5.328125 C 4.25 -5.484375 3.503906 -5.679688 2.921875 -5.921875 C 2.347656 -6.171875 1.878906 -6.5625 1.515625 -7.09375 C 1.160156 -7.632812 0.984375 -8.382812 0.984375 -9.34375 C 0.984375 -10.882812 1.453125 -12.023438 2.390625 -12.765625 C 3.328125 -13.515625 4.625 -13.890625 6.28125 -13.890625 C 7.257812 -13.890625 8.695312 -13.71875 10.59375 -13.375 L 11.5 -13.203125 L 11.4375 -10.1875 C 9.25 -10.476562 7.628906 -10.625 6.578125 -10.625 C 5.960938 -10.625 5.476562 -10.5625 5.125 -10.4375 C 4.769531 -10.3125 4.59375 -10.066406 4.59375 -9.703125 C 4.59375 -9.316406 4.769531 -9.046875 5.125 -8.890625 C 5.488281 -8.742188 6.082031 -8.597656 6.90625 -8.453125 L 7.859375 -8.28125 C 9.304688 -8 10.335938 -7.570312 10.953125 -7 C 11.566406 -6.425781 11.875 -5.503906 11.875 -4.234375 C 11.875 -2.679688 11.429688 -1.53125 10.546875 -0.78125 C 9.660156 -0.0390625 8.289062 0.328125 6.4375 0.328125 Z M 6.4375 0.328125 "/></g></g></g><g fill="#000000" fill-opacity="1"><g transform="translate(192.568057, 28.21769)"><g><path d="M 7.015625 0.328125 C 4.890625 0.328125 3.351562 -0.203125 2.40625 -1.265625 C 1.46875 -2.335938 1 -4.070312 1 -6.46875 C 1 -8.96875 1.492188 -10.832031 2.484375 -12.0625 C 3.472656 -13.289062 5.007812 -13.90625 7.09375 -13.90625 C 9.007812 -13.90625 10.460938 -13.394531 11.453125 -12.375 C 12.441406 -11.351562 12.9375 -9.816406 12.9375 -7.765625 L 12.65625 -5.25 L 4.671875 -5.25 C 4.710938 -4.613281 4.828125 -4.125 5.015625 -3.78125 C 5.203125 -3.445312 5.507812 -3.210938 5.9375 -3.078125 C 6.363281 -2.941406 6.957031 -2.875 7.71875 -2.875 C 8.3125 -2.875 9.023438 -2.890625 9.859375 -2.921875 C 10.691406 -2.960938 11.300781 -3.003906 11.6875 -3.046875 L 12.4375 -3.125 L 12.5 -0.4375 C 10.445312 0.0703125 8.617188 0.328125 7.015625 0.328125 Z M 9.34375 -8.015625 C 9.34375 -9.097656 9.175781 -9.851562 8.84375 -10.28125 C 8.507812 -10.707031 7.914062 -10.921875 7.0625 -10.921875 C 6.195312 -10.921875 5.582031 -10.695312 5.21875 -10.25 C 4.851562 -9.8125 4.660156 -9.066406 4.640625 -8.015625 Z M 9.34375 -8.015625 "/></g></g></g><g fill="#000000" fill-opacity="1"><g transform="translate(206.422693, 28.21769)"><g><path d="M 1.84375 -19.015625 L 5.484375 -19.015625 L 5.484375 0 L 1.84375 0 Z M 1.84375 -19.015625 "/></g></g></g><g clip-path="url(#717526b76d)"><g fill="#000000" fill-opacity="1"><g transform="translate(213.757503, 28.21769)"><g><path d="M 2.34375 -10.484375 L 0.875 -10.484375 L 0.875 -13.578125 L 2.34375 -13.578125 L 2.34375 -14.1875 C 2.34375 -15.507812 2.46875 -16.539062 2.71875 -17.28125 C 2.96875 -18.019531 3.375 -18.546875 3.9375 -18.859375 C 4.5 -19.179688 5.285156 -19.34375 6.296875 -19.34375 L 9.40625 -19.109375 L 9.34375 -16.03125 L 7.09375 -16.140625 C 6.707031 -16.140625 6.425781 -15.941406 6.25 -15.546875 C 6.070312 -15.160156 5.984375 -14.695312 5.984375 -14.15625 L 5.984375 -13.578125 L 9.265625 -13.578125 L 9.265625 -10.484375 L 5.984375 -10.484375 L 5.984375 0 L 2.34375 0 Z M 2.34375 -10.484375 "/></g></g></g></g></svg>