<svg xmlns="http://www.w3.org/2000/svg" xmlns:xlink="http://www.w3.org/1999/xlink" width="300" zoomAndPan="magnify" viewBox="0 0 224.87999 37.5" height="50" preserveAspectRatio="xMidYMid meet" version="1.0"><defs><filter x="0%" y="0%" width="100%" height="100%" id="f4caad854e"><feColorMatrix values="0 0 0 0 1 0 0 0 0 1 0 0 0 0 1 0 0 0 1 0" color-interpolation-filters="sRGB"/></filter><g/><mask id="2fd765875a"><g filter="url(#f4caad854e)"><rect x="-22.487999" width="269.855988" fill="#000000" y="-3.75" height="45" fill-opacity="0.7294"/></g></mask><clipPath id="cd7334ab1a"><path d="M 0.261719 2 L 2 2 L 2 6 L 0.261719 6 Z M 0.261719 2 " clip-rule="nonzero"/></clipPath><clipPath id="d2ba44fb38"><path d="M 0.261719 7 L 2 7 L 2 10 L 0.261719 10 Z M 0.261719 7 " clip-rule="nonzero"/></clipPath><clipPath id="b9c21968da"><path d="M 44 7 L 46.921875 7 L 46.921875 10 L 44 10 Z M 44 7 " clip-rule="nonzero"/></clipPath><clipPath id="717306badd"><path d="M 0.261719 11 L 2 11 L 2 14 L 0.261719 14 Z M 0.261719 11 " clip-rule="nonzero"/></clipPath><clipPath id="87f478fbfd"><path d="M 0.261719 15 L 2 15 L 2 19 L 0.261719 19 Z M 0.261719 15 " clip-rule="nonzero"/></clipPath><clipPath id="8f6afafad7"><rect x="0" width="47" y="0" height="20"/></clipPath></defs><g fill="#000000" fill-opacity="1"><g transform="translate(3.115221, 27.14842)"><g><path d="M 5.03125 -14.390625 L 0.328125 -14.390625 L 0.328125 -17.546875 L 13.234375 -17.546875 L 13.234375 -14.390625 L 8.59375 -14.390625 L 8.59375 0 L 5.03125 0 Z M 5.03125 -14.390625 "/></g></g></g><g fill="#000000" fill-opacity="1"><g transform="translate(16.679942, 27.14842)"><g><path d="M 1.59375 -18.0625 L 5.0625 -18.0625 L 5.0625 -12.28125 C 5.707031 -12.601562 6.285156 -12.835938 6.796875 -12.984375 C 7.304688 -13.128906 7.851562 -13.203125 8.4375 -13.203125 C 10.019531 -13.203125 11.140625 -12.695312 11.796875 -11.6875 C 12.460938 -10.6875 12.796875 -9.117188 12.796875 -6.984375 L 12.796875 0 L 9.34375 0 L 9.34375 -6.90625 C 9.34375 -8.082031 9.203125 -8.910156 8.921875 -9.390625 C 8.648438 -9.867188 8.117188 -10.109375 7.328125 -10.109375 C 6.703125 -10.109375 6.054688 -10.003906 5.390625 -9.796875 L 5.0625 -9.703125 L 5.0625 0 L 1.59375 0 Z M 1.59375 -18.0625 "/></g></g></g><g fill="#000000" fill-opacity="1"><g transform="translate(30.940952, 27.14842)"><g><path d="M 1.59375 -12.90625 L 5.03125 -12.90625 L 5.03125 -11.53125 C 6.507812 -12.394531 7.882812 -12.953125 9.15625 -13.203125 L 9.15625 -9.71875 C 7.863281 -9.46875 6.671875 -9.171875 5.578125 -8.828125 L 5.0625 -8.640625 L 5.0625 0 L 1.59375 0 Z M 1.59375 -12.90625 "/></g></g></g><g fill="#000000" fill-opacity="1"><g transform="translate(40.534252, 27.14842)"><g><path d="M 6.859375 0.3125 C 4.921875 0.3125 3.445312 -0.273438 2.4375 -1.453125 C 1.425781 -2.628906 0.921875 -4.300781 0.921875 -6.46875 C 0.921875 -8.625 1.425781 -10.285156 2.4375 -11.453125 C 3.445312 -12.617188 4.921875 -13.203125 6.859375 -13.203125 C 8.804688 -13.203125 10.28125 -12.617188 11.28125 -11.453125 C 12.289062 -10.285156 12.796875 -8.625 12.796875 -6.46875 C 12.796875 -4.300781 12.289062 -2.628906 11.28125 -1.453125 C 10.28125 -0.273438 8.804688 0.3125 6.859375 0.3125 Z M 6.859375 -2.625 C 7.679688 -2.625 8.289062 -2.925781 8.6875 -3.53125 C 9.082031 -4.132812 9.28125 -5.113281 9.28125 -6.46875 C 9.28125 -7.832031 9.082031 -8.804688 8.6875 -9.390625 C 8.289062 -9.972656 7.679688 -10.265625 6.859375 -10.265625 C 6.035156 -10.265625 5.425781 -9.972656 5.03125 -9.390625 C 4.632812 -8.804688 4.4375 -7.832031 4.4375 -6.46875 C 4.4375 -5.113281 4.632812 -4.132812 5.03125 -3.53125 C 5.425781 -2.925781 6.035156 -2.625 6.859375 -2.625 Z M 6.859375 -2.625 "/></g></g></g><g fill="#000000" fill-opacity="1"><g transform="translate(54.253703, 27.14842)"><g><path d="M 5.78125 0.3125 C 4.675781 0.3125 3.8125 0.0859375 3.1875 -0.359375 C 2.5625 -0.804688 2.117188 -1.492188 1.859375 -2.421875 C 1.597656 -3.347656 1.46875 -4.585938 1.46875 -6.140625 L 1.46875 -12.90625 L 4.921875 -12.90625 L 4.921875 -6.09375 C 4.921875 -5.15625 4.960938 -4.457031 5.046875 -4 C 5.140625 -3.550781 5.316406 -3.234375 5.578125 -3.046875 C 5.847656 -2.867188 6.257812 -2.78125 6.8125 -2.78125 C 7.207031 -2.78125 7.5625 -2.816406 7.875 -2.890625 C 8.195312 -2.960938 8.640625 -3.082031 9.203125 -3.25 L 9.203125 -12.90625 L 12.671875 -12.90625 L 12.671875 0 L 9.234375 0 L 9.234375 -0.71875 C 8.515625 -0.320312 7.898438 -0.0507812 7.390625 0.09375 C 6.878906 0.238281 6.34375 0.3125 5.78125 0.3125 Z M 5.78125 0.3125 "/></g></g></g><g fill="#000000" fill-opacity="1"><g transform="translate(68.514712, 27.14842)"><g><path d="M 6.78125 5.9375 C 4.945312 5.9375 3.515625 5.664062 2.484375 5.125 C 1.460938 4.582031 0.953125 3.695312 0.953125 2.46875 C 0.953125 1.832031 1.101562 1.269531 1.40625 0.78125 C 1.707031 0.289062 2.175781 -0.207031 2.8125 -0.71875 C 2.5 -0.925781 2.257812 -1.191406 2.09375 -1.515625 C 1.9375 -1.847656 1.859375 -2.191406 1.859375 -2.546875 C 1.859375 -2.804688 1.921875 -3.070312 2.046875 -3.34375 C 2.179688 -3.625 2.453125 -4.09375 2.859375 -4.75 C 1.691406 -5.601562 1.109375 -6.859375 1.109375 -8.515625 C 1.109375 -10.078125 1.582031 -11.238281 2.53125 -12 C 3.488281 -12.769531 4.820312 -13.15625 6.53125 -13.15625 C 7.25 -13.15625 8.113281 -13.046875 9.125 -12.828125 L 13.28125 -12.953125 L 13.28125 -10.1875 L 11.34375 -10.34375 C 11.570312 -9.976562 11.722656 -9.664062 11.796875 -9.40625 C 11.878906 -9.15625 11.921875 -8.804688 11.921875 -8.359375 C 11.921875 -6.804688 11.476562 -5.695312 10.59375 -5.03125 C 9.71875 -4.375 8.390625 -4.046875 6.609375 -4.046875 C 6.085938 -4.046875 5.691406 -4.082031 5.421875 -4.15625 C 5.242188 -3.738281 5.15625 -3.382812 5.15625 -3.09375 C 5.15625 -2.726562 5.332031 -2.507812 5.6875 -2.4375 C 6.039062 -2.363281 6.695312 -2.316406 7.65625 -2.296875 C 8.976562 -2.265625 10.03125 -2.160156 10.8125 -1.984375 C 11.601562 -1.816406 12.210938 -1.46875 12.640625 -0.9375 C 13.066406 -0.414062 13.28125 0.351562 13.28125 1.375 C 13.28125 2.9375 12.75 4.085938 11.6875 4.828125 C 10.625 5.566406 8.988281 5.9375 6.78125 5.9375 Z M 6.546875 -6.6875 C 7.859375 -6.6875 8.515625 -7.320312 8.515625 -8.59375 C 8.515625 -9.84375 7.859375 -10.46875 6.546875 -10.46875 C 5.222656 -10.46875 4.5625 -9.84375 4.5625 -8.59375 C 4.5625 -7.320312 5.222656 -6.6875 6.546875 -6.6875 Z M 7.015625 3.09375 C 7.992188 3.09375 8.703125 2.976562 9.140625 2.75 C 9.578125 2.53125 9.796875 2.191406 9.796875 1.734375 C 9.796875 1.296875 9.632812 1.019531 9.3125 0.90625 C 9 0.800781 8.628906 0.738281 8.203125 0.71875 C 7.785156 0.707031 7.507812 0.703125 7.375 0.703125 L 5.0625 0.515625 C 4.59375 0.984375 4.359375 1.445312 4.359375 1.90625 C 4.359375 2.320312 4.578125 2.625 5.015625 2.8125 C 5.453125 3 6.117188 3.09375 7.015625 3.09375 Z M 7.015625 3.09375 "/></g></g></g><g fill="#000000" fill-opacity="1"><g transform="translate(82.285746, 27.14842)"><g><path d="M 1.59375 -18.0625 L 5.0625 -18.0625 L 5.0625 -12.28125 C 5.707031 -12.601562 6.285156 -12.835938 6.796875 -12.984375 C 7.304688 -13.128906 7.851562 -13.203125 8.4375 -13.203125 C 10.019531 -13.203125 11.140625 -12.695312 11.796875 -11.6875 C 12.460938 -10.6875 12.796875 -9.117188 12.796875 -6.984375 L 12.796875 0 L 9.34375 0 L 9.34375 -6.90625 C 9.34375 -8.082031 9.203125 -8.910156 8.921875 -9.390625 C 8.648438 -9.867188 8.117188 -10.109375 7.328125 -10.109375 C 6.703125 -10.109375 6.054688 -10.003906 5.390625 -9.796875 L 5.0625 -9.703125 L 5.0625 0 L 1.59375 0 Z M 1.59375 -18.0625 "/></g></g></g><g fill="#000000" fill-opacity="1"><g transform="translate(151.808816, 28.4509)"><g><path d="M 7.390625 0.328125 C 5.972656 0.328125 4.242188 0.109375 2.203125 -0.328125 L 1.21875 -0.515625 L 1.609375 -3.421875 C 4.023438 -3.097656 5.878906 -2.9375 7.171875 -2.9375 C 9.085938 -2.9375 10.046875 -3.734375 10.046875 -5.328125 C 10.046875 -5.972656 9.789062 -6.445312 9.28125 -6.75 C 8.78125 -7.0625 7.929688 -7.390625 6.734375 -7.734375 C 5.304688 -8.140625 4.179688 -8.582031 3.359375 -9.0625 C 2.535156 -9.550781 1.9375 -10.128906 1.5625 -10.796875 C 1.1875 -11.472656 1 -12.3125 1 -13.3125 C 1 -15.113281 1.550781 -16.476562 2.65625 -17.40625 C 3.757812 -18.332031 5.3125 -18.796875 7.3125 -18.796875 C 8.082031 -18.796875 8.882812 -18.742188 9.71875 -18.640625 C 10.550781 -18.546875 11.773438 -18.351562 13.390625 -18.0625 L 13.09375 -15.09375 C 10.613281 -15.382812 8.8125 -15.53125 7.6875 -15.53125 C 5.707031 -15.53125 4.71875 -14.878906 4.71875 -13.578125 C 4.71875 -13.128906 4.878906 -12.757812 5.203125 -12.46875 C 5.535156 -12.175781 5.945312 -11.929688 6.4375 -11.734375 C 6.925781 -11.546875 7.75 -11.273438 8.90625 -10.921875 C 10.15625 -10.515625 11.125 -10.09375 11.8125 -9.65625 C 12.5 -9.226562 12.992188 -8.691406 13.296875 -8.046875 C 13.609375 -7.410156 13.765625 -6.582031 13.765625 -5.5625 C 13.765625 -3.664062 13.1875 -2.207031 12.03125 -1.1875 C 10.882812 -0.175781 9.335938 0.328125 7.390625 0.328125 Z M 7.390625 0.328125 "/></g></g></g><g fill="#000000" fill-opacity="1"><g transform="translate(166.580412, 28.4509)"><g><path d="M 6.296875 0.328125 C 5.242188 0.328125 4.425781 0.164062 3.84375 -0.15625 C 3.269531 -0.488281 2.859375 -1.023438 2.609375 -1.765625 C 2.359375 -2.503906 2.234375 -3.523438 2.234375 -4.828125 L 2.234375 -10.484375 L 0.625 -10.484375 L 0.625 -13.578125 L 2.234375 -13.578125 L 2.234375 -17.359375 L 5.859375 -17.359375 L 5.859375 -13.578125 L 9.203125 -13.578125 L 9.203125 -10.484375 L 5.859375 -10.484375 L 5.859375 -4.921875 C 5.859375 -4.210938 5.921875 -3.695312 6.046875 -3.375 C 6.179688 -3.0625 6.5 -2.914062 7 -2.9375 L 9.0625 -2.984375 L 9.234375 -0.078125 C 8.503906 0.078125 7.9375 0.179688 7.53125 0.234375 C 7.125 0.296875 6.710938 0.328125 6.296875 0.328125 Z M 6.296875 0.328125 "/></g></g></g><g fill="#000000" fill-opacity="1"><g transform="translate(176.464346, 28.4509)"><g><path d="M 6.328125 0 L 3.78125 0 L 0.4375 -13.578125 L 4.015625 -13.578125 L 6.484375 -3.09375 L 7.109375 -3.09375 L 9.59375 -13.578125 L 13.171875 -13.578125 L 8.390625 5.703125 L 4.828125 5.703125 Z M 6.328125 0 "/></g></g></g><g fill="#000000" fill-opacity="1"><g transform="translate(190.04118, 28.4509)"><g><path d="M 1.84375 -19.015625 L 5.484375 -19.015625 L 5.484375 0 L 1.84375 0 Z M 1.84375 -19.015625 "/></g></g></g><g fill="#000000" fill-opacity="1"><g transform="translate(197.372667, 28.4509)"><g><path d="M 7 0.328125 C 4.882812 0.328125 3.351562 -0.203125 2.40625 -1.265625 C 1.46875 -2.335938 1 -4.070312 1 -6.46875 C 1 -8.957031 1.492188 -10.816406 2.484375 -12.046875 C 3.472656 -13.285156 5.007812 -13.90625 7.09375 -13.90625 C 9.007812 -13.90625 10.457031 -13.390625 11.4375 -12.359375 C 12.425781 -11.335938 12.921875 -9.804688 12.921875 -7.765625 L 12.65625 -5.234375 L 4.671875 -5.234375 C 4.703125 -4.609375 4.8125 -4.125 5 -3.78125 C 5.195312 -3.445312 5.507812 -3.210938 5.9375 -3.078125 C 6.363281 -2.941406 6.957031 -2.875 7.71875 -2.875 C 8.3125 -2.875 9.023438 -2.890625 9.859375 -2.921875 C 10.691406 -2.960938 11.296875 -3.003906 11.671875 -3.046875 L 12.4375 -3.125 L 12.484375 -0.4375 C 10.441406 0.0703125 8.613281 0.328125 7 0.328125 Z M 9.34375 -8.015625 C 9.34375 -9.097656 9.175781 -9.851562 8.84375 -10.28125 C 8.507812 -10.707031 7.914062 -10.921875 7.0625 -10.921875 C 6.1875 -10.921875 5.566406 -10.695312 5.203125 -10.25 C 4.847656 -9.8125 4.660156 -9.066406 4.640625 -8.015625 Z M 9.34375 -8.015625 "/></g></g></g><g fill="#f46f0f" fill-opacity="1"><g transform="translate(211.215937, 28.4509)"><g><path d="M 1.515625 -4.515625 L 5.4375 -4.515625 L 5.4375 0 L 1.515625 0 Z M 1.515625 -4.515625 "/></g></g></g><g mask="url(#2fd765875a)"><g transform="matrix(1, 0, 0, 1, 103, 11)"><g clip-path="url(#8f6afafad7)"><g clip-path="url(#cd7334ab1a)"><g fill="#000000" fill-opacity="1"><g transform="translate(0.29247, 5.004095)"><g><path d="M 1.4375 -0.375 L 1.4375 0 L 0.234375 0 L 0.234375 -2.109375 L 0.65625 -2.109375 L 0.65625 -0.375 Z M 1.4375 -0.375 "/></g></g></g></g><g fill="#000000" fill-opacity="1"><g transform="translate(1.759512, 5.004095)"><g><path d="M 0.828125 0.03125 C 0.585938 0.03125 0.40625 -0.0351562 0.28125 -0.171875 C 0.164062 -0.316406 0.109375 -0.519531 0.109375 -0.78125 C 0.109375 -1.039062 0.164062 -1.238281 0.28125 -1.375 C 0.40625 -1.519531 0.585938 -1.59375 0.828125 -1.59375 C 1.054688 -1.59375 1.234375 -1.519531 1.359375 -1.375 C 1.484375 -1.238281 1.546875 -1.039062 1.546875 -0.78125 C 1.546875 -0.519531 1.484375 -0.316406 1.359375 -0.171875 C 1.234375 -0.0351562 1.054688 0.03125 0.828125 0.03125 Z M 0.828125 -0.3125 C 0.921875 -0.3125 0.992188 -0.347656 1.046875 -0.421875 C 1.097656 -0.492188 1.125 -0.613281 1.125 -0.78125 C 1.125 -0.945312 1.097656 -1.0625 1.046875 -1.125 C 0.992188 -1.195312 0.921875 -1.234375 0.828125 -1.234375 C 0.722656 -1.234375 0.644531 -1.195312 0.59375 -1.125 C 0.550781 -1.0625 0.53125 -0.945312 0.53125 -0.78125 C 0.53125 -0.613281 0.550781 -0.492188 0.59375 -0.421875 C 0.644531 -0.347656 0.722656 -0.3125 0.828125 -0.3125 Z M 0.828125 -0.3125 "/></g></g></g><g fill="#000000" fill-opacity="1"><g transform="translate(3.41304, 5.004095)"><g><path d="M 0.1875 -1.5625 L 0.609375 -1.5625 L 0.609375 -1.390625 C 0.785156 -1.492188 0.953125 -1.5625 1.109375 -1.59375 L 1.109375 -1.171875 C 0.953125 -1.140625 0.804688 -1.101562 0.671875 -1.0625 L 0.609375 -1.046875 L 0.609375 0 L 0.1875 0 Z M 0.1875 -1.5625 "/></g></g></g><g fill="#000000" fill-opacity="1"><g transform="translate(4.569267, 5.004095)"><g><path d="M 0.796875 0.03125 C 0.554688 0.03125 0.378906 -0.0234375 0.265625 -0.140625 C 0.160156 -0.265625 0.109375 -0.460938 0.109375 -0.734375 C 0.109375 -1.023438 0.164062 -1.238281 0.28125 -1.375 C 0.394531 -1.519531 0.570312 -1.59375 0.8125 -1.59375 C 1.03125 -1.59375 1.195312 -1.53125 1.3125 -1.40625 C 1.425781 -1.289062 1.484375 -1.117188 1.484375 -0.890625 L 1.453125 -0.59375 L 0.53125 -0.59375 C 0.539062 -0.519531 0.554688 -0.460938 0.578125 -0.421875 C 0.597656 -0.390625 0.628906 -0.363281 0.671875 -0.34375 C 0.722656 -0.332031 0.796875 -0.328125 0.890625 -0.328125 C 0.953125 -0.328125 1.03125 -0.328125 1.125 -0.328125 C 1.21875 -0.335938 1.289062 -0.34375 1.34375 -0.34375 L 1.421875 -0.359375 L 1.4375 -0.046875 C 1.195312 0.00390625 0.984375 0.03125 0.796875 0.03125 Z M 1.0625 -0.921875 C 1.0625 -1.046875 1.039062 -1.128906 1 -1.171875 C 0.96875 -1.222656 0.90625 -1.25 0.8125 -1.25 C 0.707031 -1.25 0.632812 -1.222656 0.59375 -1.171875 C 0.550781 -1.117188 0.53125 -1.035156 0.53125 -0.921875 Z M 1.0625 -0.921875 "/></g></g></g><g fill="#000000" fill-opacity="1"><g transform="translate(6.154415, 5.004095)"><g><path d="M 0.1875 -1.5625 L 0.609375 -1.5625 L 0.609375 -1.46875 C 0.679688 -1.507812 0.742188 -1.539062 0.796875 -1.5625 C 0.859375 -1.582031 0.921875 -1.59375 0.984375 -1.59375 C 1.054688 -1.59375 1.125 -1.578125 1.1875 -1.546875 C 1.257812 -1.523438 1.316406 -1.492188 1.359375 -1.453125 C 1.460938 -1.492188 1.554688 -1.523438 1.640625 -1.546875 C 1.722656 -1.578125 1.8125 -1.59375 1.90625 -1.59375 C 2.09375 -1.59375 2.226562 -1.53125 2.3125 -1.40625 C 2.394531 -1.289062 2.4375 -1.101562 2.4375 -0.84375 L 2.4375 0 L 2.015625 0 L 2.015625 -0.828125 C 2.015625 -0.960938 2 -1.0625 1.96875 -1.125 C 1.9375 -1.1875 1.878906 -1.21875 1.796875 -1.21875 C 1.734375 -1.21875 1.65625 -1.203125 1.5625 -1.171875 L 1.515625 -1.15625 C 1.515625 -1.019531 1.515625 -0.90625 1.515625 -0.8125 L 1.515625 0 L 1.109375 0 L 1.109375 -0.796875 C 1.109375 -0.910156 1.097656 -0.992188 1.078125 -1.046875 C 1.066406 -1.109375 1.046875 -1.148438 1.015625 -1.171875 C 0.984375 -1.203125 0.9375 -1.21875 0.875 -1.21875 C 0.8125 -1.21875 0.734375 -1.203125 0.640625 -1.171875 L 0.609375 -1.15625 L 0.609375 0 L 0.1875 0 Z M 0.1875 -1.5625 "/></g></g></g><g fill="#000000" fill-opacity="1"><g transform="translate(8.762139, 5.004095)"><g><path d="M 0.21875 -0.421875 L 0.671875 -0.421875 L 0.390625 0.375 L 0.0625 0.375 Z M 0.21875 -0.421875 "/></g></g></g><g fill="#000000" fill-opacity="1"><g transform="translate(9.579578, 5.004095)"><g/></g></g><g fill="#000000" fill-opacity="1"><g transform="translate(10.263367, 5.004095)"><g><path d="M 0.1875 0 Z M 0.1875 -1.5625 L 0.609375 -1.5625 L 0.609375 0 L 0.1875 0 Z M 0.1875 -2.1875 L 0.609375 -2.1875 L 0.609375 -1.765625 L 0.1875 -1.765625 Z M 0.1875 -2.1875 "/></g></g></g><g fill="#000000" fill-opacity="1"><g transform="translate(11.065266, 5.004095)"><g><path d="M 0.1875 -1.5625 L 0.609375 -1.5625 L 0.609375 -1.46875 C 0.691406 -1.519531 0.757812 -1.550781 0.8125 -1.5625 C 0.863281 -1.582031 0.921875 -1.59375 0.984375 -1.59375 C 1.179688 -1.59375 1.328125 -1.523438 1.421875 -1.390625 C 1.523438 -1.265625 1.578125 -1.054688 1.578125 -0.765625 C 1.578125 -0.566406 1.550781 -0.410156 1.5 -0.296875 C 1.457031 -0.179688 1.382812 -0.0976562 1.28125 -0.046875 C 1.175781 0.00390625 1.039062 0.03125 0.875 0.03125 C 0.789062 0.03125 0.703125 0.0234375 0.609375 0.015625 L 0.609375 0.65625 L 0.1875 0.65625 Z M 0.828125 -0.328125 C 0.941406 -0.328125 1.023438 -0.359375 1.078125 -0.421875 C 1.128906 -0.492188 1.15625 -0.609375 1.15625 -0.765625 C 1.15625 -0.921875 1.128906 -1.035156 1.078125 -1.109375 C 1.035156 -1.179688 0.96875 -1.21875 0.875 -1.21875 C 0.800781 -1.21875 0.722656 -1.203125 0.640625 -1.171875 L 0.609375 -1.15625 L 0.609375 -0.34375 C 0.703125 -0.332031 0.773438 -0.328125 0.828125 -0.328125 Z M 0.828125 -0.328125 "/></g></g></g><g fill="#000000" fill-opacity="1"><g transform="translate(12.756091, 5.004095)"><g><path d="M 0.734375 0.03125 C 0.597656 0.03125 0.429688 0.015625 0.234375 -0.015625 L 0.140625 -0.03125 L 0.15625 -0.390625 C 0.40625 -0.347656 0.585938 -0.328125 0.703125 -0.328125 C 0.773438 -0.328125 0.832031 -0.335938 0.875 -0.359375 C 0.914062 -0.378906 0.9375 -0.410156 0.9375 -0.453125 C 0.9375 -0.492188 0.914062 -0.523438 0.875 -0.546875 C 0.832031 -0.566406 0.765625 -0.582031 0.671875 -0.59375 C 0.628906 -0.601562 0.601562 -0.609375 0.59375 -0.609375 C 0.488281 -0.628906 0.398438 -0.648438 0.328125 -0.671875 C 0.265625 -0.703125 0.210938 -0.75 0.171875 -0.8125 C 0.128906 -0.875 0.109375 -0.957031 0.109375 -1.0625 C 0.109375 -1.238281 0.160156 -1.367188 0.265625 -1.453125 C 0.378906 -1.546875 0.53125 -1.59375 0.71875 -1.59375 C 0.832031 -1.59375 1 -1.570312 1.21875 -1.53125 L 1.3125 -1.515625 L 1.3125 -1.171875 C 1.0625 -1.203125 0.875 -1.21875 0.75 -1.21875 C 0.675781 -1.21875 0.617188 -1.207031 0.578125 -1.1875 C 0.546875 -1.175781 0.53125 -1.148438 0.53125 -1.109375 C 0.53125 -1.066406 0.550781 -1.035156 0.59375 -1.015625 C 0.632812 -0.992188 0.703125 -0.976562 0.796875 -0.96875 L 0.90625 -0.953125 C 1.0625 -0.921875 1.175781 -0.867188 1.25 -0.796875 C 1.320312 -0.734375 1.359375 -0.628906 1.359375 -0.484375 C 1.359375 -0.304688 1.304688 -0.175781 1.203125 -0.09375 C 1.097656 -0.0078125 0.941406 0.03125 0.734375 0.03125 Z M 0.734375 0.03125 "/></g></g></g><g fill="#000000" fill-opacity="1"><g transform="translate(14.223132, 5.004095)"><g><path d="M 0.703125 0.03125 C 0.566406 0.03125 0.457031 0.00390625 0.375 -0.046875 C 0.300781 -0.0976562 0.25 -0.175781 0.21875 -0.28125 C 0.1875 -0.394531 0.171875 -0.546875 0.171875 -0.734375 L 0.171875 -1.5625 L 0.59375 -1.5625 L 0.59375 -0.734375 C 0.59375 -0.617188 0.597656 -0.535156 0.609375 -0.484375 C 0.617188 -0.429688 0.640625 -0.390625 0.671875 -0.359375 C 0.703125 -0.335938 0.753906 -0.328125 0.828125 -0.328125 C 0.867188 -0.328125 0.90625 -0.332031 0.9375 -0.34375 C 0.976562 -0.351562 1.035156 -0.367188 1.109375 -0.390625 L 1.109375 -1.5625 L 1.53125 -1.5625 L 1.53125 0 L 1.109375 0 L 1.109375 -0.09375 C 1.023438 -0.0390625 0.953125 -0.0078125 0.890625 0 C 0.828125 0.0195312 0.765625 0.03125 0.703125 0.03125 Z M 0.703125 0.03125 "/></g></g></g><g fill="#000000" fill-opacity="1"><g transform="translate(15.94193, 5.004095)"><g><path d="M 0.1875 -1.5625 L 0.609375 -1.5625 L 0.609375 -1.46875 C 0.679688 -1.507812 0.742188 -1.539062 0.796875 -1.5625 C 0.859375 -1.582031 0.921875 -1.59375 0.984375 -1.59375 C 1.054688 -1.59375 1.125 -1.578125 1.1875 -1.546875 C 1.257812 -1.523438 1.316406 -1.492188 1.359375 -1.453125 C 1.460938 -1.492188 1.554688 -1.523438 1.640625 -1.546875 C 1.722656 -1.578125 1.8125 -1.59375 1.90625 -1.59375 C 2.09375 -1.59375 2.226562 -1.53125 2.3125 -1.40625 C 2.394531 -1.289062 2.4375 -1.101562 2.4375 -0.84375 L 2.4375 0 L 2.015625 0 L 2.015625 -0.828125 C 2.015625 -0.960938 2 -1.0625 1.96875 -1.125 C 1.9375 -1.1875 1.878906 -1.21875 1.796875 -1.21875 C 1.734375 -1.21875 1.65625 -1.203125 1.5625 -1.171875 L 1.515625 -1.15625 C 1.515625 -1.019531 1.515625 -0.90625 1.515625 -0.8125 L 1.515625 0 L 1.109375 0 L 1.109375 -0.796875 C 1.109375 -0.910156 1.097656 -0.992188 1.078125 -1.046875 C 1.066406 -1.109375 1.046875 -1.148438 1.015625 -1.171875 C 0.984375 -1.203125 0.9375 -1.21875 0.875 -1.21875 C 0.8125 -1.21875 0.734375 -1.203125 0.640625 -1.171875 L 0.609375 -1.15625 L 0.609375 0 L 0.1875 0 Z M 0.1875 -1.5625 "/></g></g></g><g fill="#000000" fill-opacity="1"><g transform="translate(18.549655, 5.004095)"><g/></g></g><g fill="#000000" fill-opacity="1"><g transform="translate(19.233443, 5.004095)"><g><path d="M 0.703125 0.03125 C 0.492188 0.03125 0.34375 -0.03125 0.25 -0.15625 C 0.164062 -0.289062 0.125 -0.488281 0.125 -0.75 C 0.125 -1.039062 0.171875 -1.253906 0.265625 -1.390625 C 0.367188 -1.523438 0.53125 -1.59375 0.75 -1.59375 C 0.820312 -1.59375 0.9375 -1.578125 1.09375 -1.546875 L 1.09375 -2.171875 L 1.515625 -2.171875 L 1.515625 0 L 1.09375 0 L 1.09375 -0.0625 C 1.007812 -0.0195312 0.9375 0.00390625 0.875 0.015625 C 0.820312 0.0234375 0.765625 0.03125 0.703125 0.03125 Z M 0.796875 -0.328125 C 0.867188 -0.328125 0.953125 -0.34375 1.046875 -0.375 L 1.09375 -0.375 L 1.09375 -1.203125 C 0.988281 -1.222656 0.898438 -1.234375 0.828125 -1.234375 C 0.722656 -1.234375 0.648438 -1.195312 0.609375 -1.125 C 0.566406 -1.050781 0.546875 -0.929688 0.546875 -0.765625 C 0.546875 -0.609375 0.5625 -0.492188 0.59375 -0.421875 C 0.632812 -0.359375 0.703125 -0.328125 0.796875 -0.328125 Z M 0.796875 -0.328125 "/></g></g></g><g fill="#000000" fill-opacity="1"><g transform="translate(20.939808, 5.004095)"><g><path d="M 0.828125 0.03125 C 0.585938 0.03125 0.40625 -0.0351562 0.28125 -0.171875 C 0.164062 -0.316406 0.109375 -0.519531 0.109375 -0.78125 C 0.109375 -1.039062 0.164062 -1.238281 0.28125 -1.375 C 0.40625 -1.519531 0.585938 -1.59375 0.828125 -1.59375 C 1.054688 -1.59375 1.234375 -1.519531 1.359375 -1.375 C 1.484375 -1.238281 1.546875 -1.039062 1.546875 -0.78125 C 1.546875 -0.519531 1.484375 -0.316406 1.359375 -0.171875 C 1.234375 -0.0351562 1.054688 0.03125 0.828125 0.03125 Z M 0.828125 -0.3125 C 0.921875 -0.3125 0.992188 -0.347656 1.046875 -0.421875 C 1.097656 -0.492188 1.125 -0.613281 1.125 -0.78125 C 1.125 -0.945312 1.097656 -1.0625 1.046875 -1.125 C 0.992188 -1.195312 0.921875 -1.234375 0.828125 -1.234375 C 0.722656 -1.234375 0.644531 -1.195312 0.59375 -1.125 C 0.550781 -1.0625 0.53125 -0.945312 0.53125 -0.78125 C 0.53125 -0.613281 0.550781 -0.492188 0.59375 -0.421875 C 0.644531 -0.347656 0.722656 -0.3125 0.828125 -0.3125 Z M 0.828125 -0.3125 "/></g></g></g><g fill="#000000" fill-opacity="1"><g transform="translate(22.593337, 5.004095)"><g><path d="M 0.21875 -2.171875 L 0.625 -2.171875 L 0.625 0 L 0.21875 0 Z M 0.21875 -2.171875 "/></g></g></g><g fill="#000000" fill-opacity="1"><g transform="translate(23.432532, 5.004095)"><g><path d="M 0.828125 0.03125 C 0.585938 0.03125 0.40625 -0.0351562 0.28125 -0.171875 C 0.164062 -0.316406 0.109375 -0.519531 0.109375 -0.78125 C 0.109375 -1.039062 0.164062 -1.238281 0.28125 -1.375 C 0.40625 -1.519531 0.585938 -1.59375 0.828125 -1.59375 C 1.054688 -1.59375 1.234375 -1.519531 1.359375 -1.375 C 1.484375 -1.238281 1.546875 -1.039062 1.546875 -0.78125 C 1.546875 -0.519531 1.484375 -0.316406 1.359375 -0.171875 C 1.234375 -0.0351562 1.054688 0.03125 0.828125 0.03125 Z M 0.828125 -0.3125 C 0.921875 -0.3125 0.992188 -0.347656 1.046875 -0.421875 C 1.097656 -0.492188 1.125 -0.613281 1.125 -0.78125 C 1.125 -0.945312 1.097656 -1.0625 1.046875 -1.125 C 0.992188 -1.195312 0.921875 -1.234375 0.828125 -1.234375 C 0.722656 -1.234375 0.644531 -1.195312 0.59375 -1.125 C 0.550781 -1.0625 0.53125 -0.945312 0.53125 -0.78125 C 0.53125 -0.613281 0.550781 -0.492188 0.59375 -0.421875 C 0.644531 -0.347656 0.722656 -0.3125 0.828125 -0.3125 Z M 0.828125 -0.3125 "/></g></g></g><g fill="#000000" fill-opacity="1"><g transform="translate(25.086061, 5.004095)"><g><path d="M 0.1875 -1.5625 L 0.609375 -1.5625 L 0.609375 -1.390625 C 0.785156 -1.492188 0.953125 -1.5625 1.109375 -1.59375 L 1.109375 -1.171875 C 0.953125 -1.140625 0.804688 -1.101562 0.671875 -1.0625 L 0.609375 -1.046875 L 0.609375 0 L 0.1875 0 Z M 0.1875 -1.5625 "/></g></g></g><g fill="#000000" fill-opacity="1"><g transform="translate(26.242288, 5.004095)"><g/></g></g><g fill="#000000" fill-opacity="1"><g transform="translate(26.926076, 5.004095)"><g><path d="M 0.734375 0.03125 C 0.597656 0.03125 0.429688 0.015625 0.234375 -0.015625 L 0.140625 -0.03125 L 0.15625 -0.390625 C 0.40625 -0.347656 0.585938 -0.328125 0.703125 -0.328125 C 0.773438 -0.328125 0.832031 -0.335938 0.875 -0.359375 C 0.914062 -0.378906 0.9375 -0.410156 0.9375 -0.453125 C 0.9375 -0.492188 0.914062 -0.523438 0.875 -0.546875 C 0.832031 -0.566406 0.765625 -0.582031 0.671875 -0.59375 C 0.628906 -0.601562 0.601562 -0.609375 0.59375 -0.609375 C 0.488281 -0.628906 0.398438 -0.648438 0.328125 -0.671875 C 0.265625 -0.703125 0.210938 -0.75 0.171875 -0.8125 C 0.128906 -0.875 0.109375 -0.957031 0.109375 -1.0625 C 0.109375 -1.238281 0.160156 -1.367188 0.265625 -1.453125 C 0.378906 -1.546875 0.53125 -1.59375 0.71875 -1.59375 C 0.832031 -1.59375 1 -1.570312 1.21875 -1.53125 L 1.3125 -1.515625 L 1.3125 -1.171875 C 1.0625 -1.203125 0.875 -1.21875 0.75 -1.21875 C 0.675781 -1.21875 0.617188 -1.207031 0.578125 -1.1875 C 0.546875 -1.175781 0.53125 -1.148438 0.53125 -1.109375 C 0.53125 -1.066406 0.550781 -1.035156 0.59375 -1.015625 C 0.632812 -0.992188 0.703125 -0.976562 0.796875 -0.96875 L 0.90625 -0.953125 C 1.0625 -0.921875 1.175781 -0.867188 1.25 -0.796875 C 1.320312 -0.734375 1.359375 -0.628906 1.359375 -0.484375 C 1.359375 -0.304688 1.304688 -0.175781 1.203125 -0.09375 C 1.097656 -0.0078125 0.941406 0.03125 0.734375 0.03125 Z M 0.734375 0.03125 "/></g></g></g><g fill="#000000" fill-opacity="1"><g transform="translate(28.393117, 5.004095)"><g><path d="M 0.1875 0 Z M 0.1875 -1.5625 L 0.609375 -1.5625 L 0.609375 0 L 0.1875 0 Z M 0.1875 -2.1875 L 0.609375 -2.1875 L 0.609375 -1.765625 L 0.1875 -1.765625 Z M 0.1875 -2.1875 "/></g></g></g><g fill="#000000" fill-opacity="1"><g transform="translate(29.195016, 5.004095)"><g><path d="M 0.71875 0.03125 C 0.601562 0.03125 0.507812 0.015625 0.4375 -0.015625 C 0.375 -0.0546875 0.328125 -0.117188 0.296875 -0.203125 C 0.265625 -0.285156 0.25 -0.398438 0.25 -0.546875 L 0.25 -1.203125 L 0.078125 -1.203125 L 0.078125 -1.5625 L 0.25 -1.5625 L 0.25 -1.984375 L 0.671875 -1.984375 L 0.671875 -1.5625 L 1.046875 -1.5625 L 1.046875 -1.203125 L 0.671875 -1.203125 L 0.671875 -0.5625 C 0.671875 -0.476562 0.675781 -0.414062 0.6875 -0.375 C 0.707031 -0.34375 0.742188 -0.328125 0.796875 -0.328125 L 1.03125 -0.34375 L 1.0625 -0.015625 C 0.976562 0.00390625 0.910156 0.015625 0.859375 0.015625 C 0.816406 0.0234375 0.769531 0.03125 0.71875 0.03125 Z M 0.71875 0.03125 "/></g></g></g><g fill="#000000" fill-opacity="1"><g transform="translate(30.326376, 5.004095)"><g/></g></g><g fill="#000000" fill-opacity="1"><g transform="translate(31.010165, 5.004095)"><g><path d="M 0.578125 0.03125 C 0.253906 0.03125 0.09375 -0.132812 0.09375 -0.46875 C 0.09375 -0.632812 0.132812 -0.753906 0.21875 -0.828125 C 0.300781 -0.898438 0.441406 -0.941406 0.640625 -0.953125 L 0.96875 -0.96875 L 0.96875 -1.0625 C 0.96875 -1.125 0.953125 -1.164062 0.921875 -1.1875 C 0.898438 -1.21875 0.851562 -1.234375 0.78125 -1.234375 C 0.71875 -1.234375 0.625 -1.226562 0.5 -1.21875 C 0.375 -1.21875 0.273438 -1.21875 0.203125 -1.21875 L 0.1875 -1.5 C 0.40625 -1.5625 0.617188 -1.59375 0.828125 -1.59375 C 1.023438 -1.59375 1.164062 -1.550781 1.25 -1.46875 C 1.34375 -1.382812 1.390625 -1.25 1.390625 -1.0625 L 1.390625 -0.421875 C 1.390625 -0.367188 1.394531 -0.332031 1.40625 -0.3125 C 1.425781 -0.300781 1.453125 -0.289062 1.484375 -0.28125 L 1.46875 0.03125 C 1.363281 0.03125 1.28125 0.0234375 1.21875 0.015625 C 1.15625 0.00390625 1.09375 -0.0234375 1.03125 -0.078125 C 0.875 -0.00390625 0.722656 0.03125 0.578125 0.03125 Z M 0.65625 -0.296875 C 0.738281 -0.296875 0.828125 -0.3125 0.921875 -0.34375 L 0.96875 -0.34375 L 0.96875 -0.6875 L 0.6875 -0.65625 C 0.570312 -0.644531 0.515625 -0.582031 0.515625 -0.46875 C 0.515625 -0.351562 0.5625 -0.296875 0.65625 -0.296875 Z M 0.65625 -0.296875 "/></g></g></g><g fill="#000000" fill-opacity="1"><g transform="translate(32.598423, 5.004095)"><g><path d="M 0.1875 -1.5625 L 0.609375 -1.5625 L 0.609375 -1.46875 C 0.679688 -1.507812 0.742188 -1.539062 0.796875 -1.5625 C 0.859375 -1.582031 0.921875 -1.59375 0.984375 -1.59375 C 1.054688 -1.59375 1.125 -1.578125 1.1875 -1.546875 C 1.257812 -1.523438 1.316406 -1.492188 1.359375 -1.453125 C 1.460938 -1.492188 1.554688 -1.523438 1.640625 -1.546875 C 1.722656 -1.578125 1.8125 -1.59375 1.90625 -1.59375 C 2.09375 -1.59375 2.226562 -1.53125 2.3125 -1.40625 C 2.394531 -1.289062 2.4375 -1.101562 2.4375 -0.84375 L 2.4375 0 L 2.015625 0 L 2.015625 -0.828125 C 2.015625 -0.960938 2 -1.0625 1.96875 -1.125 C 1.9375 -1.1875 1.878906 -1.21875 1.796875 -1.21875 C 1.734375 -1.21875 1.65625 -1.203125 1.5625 -1.171875 L 1.515625 -1.15625 C 1.515625 -1.019531 1.515625 -0.90625 1.515625 -0.8125 L 1.515625 0 L 1.109375 0 L 1.109375 -0.796875 C 1.109375 -0.910156 1.097656 -0.992188 1.078125 -1.046875 C 1.066406 -1.109375 1.046875 -1.148438 1.015625 -1.171875 C 0.984375 -1.203125 0.9375 -1.21875 0.875 -1.21875 C 0.8125 -1.21875 0.734375 -1.203125 0.640625 -1.171875 L 0.609375 -1.15625 L 0.609375 0 L 0.1875 0 Z M 0.1875 -1.5625 "/></g></g></g><g fill="#000000" fill-opacity="1"><g transform="translate(35.206147, 5.004095)"><g><path d="M 0.796875 0.03125 C 0.554688 0.03125 0.378906 -0.0234375 0.265625 -0.140625 C 0.160156 -0.265625 0.109375 -0.460938 0.109375 -0.734375 C 0.109375 -1.023438 0.164062 -1.238281 0.28125 -1.375 C 0.394531 -1.519531 0.570312 -1.59375 0.8125 -1.59375 C 1.03125 -1.59375 1.195312 -1.53125 1.3125 -1.40625 C 1.425781 -1.289062 1.484375 -1.117188 1.484375 -0.890625 L 1.453125 -0.59375 L 0.53125 -0.59375 C 0.539062 -0.519531 0.554688 -0.460938 0.578125 -0.421875 C 0.597656 -0.390625 0.628906 -0.363281 0.671875 -0.34375 C 0.722656 -0.332031 0.796875 -0.328125 0.890625 -0.328125 C 0.953125 -0.328125 1.03125 -0.328125 1.125 -0.328125 C 1.21875 -0.335938 1.289062 -0.34375 1.34375 -0.34375 L 1.421875 -0.359375 L 1.4375 -0.046875 C 1.195312 0.00390625 0.984375 0.03125 0.796875 0.03125 Z M 1.0625 -0.921875 C 1.0625 -1.046875 1.039062 -1.128906 1 -1.171875 C 0.96875 -1.222656 0.90625 -1.25 0.8125 -1.25 C 0.707031 -1.25 0.632812 -1.222656 0.59375 -1.171875 C 0.550781 -1.117188 0.53125 -1.035156 0.53125 -0.921875 Z M 1.0625 -0.921875 "/></g></g></g><g fill="#000000" fill-opacity="1"><g transform="translate(36.791295, 5.004095)"><g><path d="M 0.71875 0.03125 C 0.601562 0.03125 0.507812 0.015625 0.4375 -0.015625 C 0.375 -0.0546875 0.328125 -0.117188 0.296875 -0.203125 C 0.265625 -0.285156 0.25 -0.398438 0.25 -0.546875 L 0.25 -1.203125 L 0.078125 -1.203125 L 0.078125 -1.5625 L 0.25 -1.5625 L 0.25 -1.984375 L 0.671875 -1.984375 L 0.671875 -1.5625 L 1.046875 -1.5625 L 1.046875 -1.203125 L 0.671875 -1.203125 L 0.671875 -0.5625 C 0.671875 -0.476562 0.675781 -0.414062 0.6875 -0.375 C 0.707031 -0.34375 0.742188 -0.328125 0.796875 -0.328125 L 1.03125 -0.34375 L 1.0625 -0.015625 C 0.976562 0.00390625 0.910156 0.015625 0.859375 0.015625 C 0.816406 0.0234375 0.769531 0.03125 0.71875 0.03125 Z M 0.71875 0.03125 "/></g></g></g><g clip-path="url(#d2ba44fb38)"><g fill="#000000" fill-opacity="1"><g transform="translate(0.29247, 9.148245)"><g><path d="M 0.75 0.03125 C 0.53125 0.03125 0.367188 -0.03125 0.265625 -0.15625 C 0.171875 -0.28125 0.125 -0.488281 0.125 -0.78125 C 0.125 -1.0625 0.171875 -1.265625 0.265625 -1.390625 C 0.367188 -1.523438 0.539062 -1.59375 0.78125 -1.59375 C 0.84375 -1.59375 0.910156 -1.585938 0.984375 -1.578125 C 1.054688 -1.566406 1.148438 -1.550781 1.265625 -1.53125 L 1.265625 -1.1875 C 1.085938 -1.207031 0.960938 -1.21875 0.890625 -1.21875 C 0.796875 -1.21875 0.722656 -1.203125 0.671875 -1.171875 C 0.617188 -1.148438 0.582031 -1.109375 0.5625 -1.046875 C 0.550781 -0.984375 0.546875 -0.894531 0.546875 -0.78125 C 0.546875 -0.664062 0.550781 -0.578125 0.5625 -0.515625 C 0.582031 -0.453125 0.617188 -0.40625 0.671875 -0.375 C 0.722656 -0.34375 0.800781 -0.328125 0.90625 -0.328125 L 1.265625 -0.359375 L 1.265625 -0.03125 C 1.046875 0.0078125 0.875 0.03125 0.75 0.03125 Z M 0.75 0.03125 "/></g></g></g></g><g fill="#000000" fill-opacity="1"><g transform="translate(1.678698, 9.148245)"><g><path d="M 0.828125 0.03125 C 0.585938 0.03125 0.40625 -0.0351562 0.28125 -0.171875 C 0.164062 -0.316406 0.109375 -0.519531 0.109375 -0.78125 C 0.109375 -1.039062 0.164062 -1.238281 0.28125 -1.375 C 0.40625 -1.519531 0.585938 -1.59375 0.828125 -1.59375 C 1.054688 -1.59375 1.234375 -1.519531 1.359375 -1.375 C 1.484375 -1.238281 1.546875 -1.039062 1.546875 -0.78125 C 1.546875 -0.519531 1.484375 -0.316406 1.359375 -0.171875 C 1.234375 -0.0351562 1.054688 0.03125 0.828125 0.03125 Z M 0.828125 -0.3125 C 0.921875 -0.3125 0.992188 -0.347656 1.046875 -0.421875 C 1.097656 -0.492188 1.125 -0.613281 1.125 -0.78125 C 1.125 -0.945312 1.097656 -1.0625 1.046875 -1.125 C 0.992188 -1.195312 0.921875 -1.234375 0.828125 -1.234375 C 0.722656 -1.234375 0.644531 -1.195312 0.59375 -1.125 C 0.550781 -1.0625 0.53125 -0.945312 0.53125 -0.78125 C 0.53125 -0.613281 0.550781 -0.492188 0.59375 -0.421875 C 0.644531 -0.347656 0.722656 -0.3125 0.828125 -0.3125 Z M 0.828125 -0.3125 "/></g></g></g><g fill="#000000" fill-opacity="1"><g transform="translate(3.332226, 9.148245)"><g><path d="M 0.1875 -1.5625 L 0.609375 -1.5625 L 0.609375 -1.46875 C 0.679688 -1.507812 0.75 -1.539062 0.8125 -1.5625 C 0.875 -1.582031 0.941406 -1.59375 1.015625 -1.59375 C 1.203125 -1.59375 1.335938 -1.53125 1.421875 -1.40625 C 1.503906 -1.28125 1.546875 -1.09375 1.546875 -0.84375 L 1.546875 0 L 1.125 0 L 1.125 -0.828125 C 1.125 -0.972656 1.101562 -1.070312 1.0625 -1.125 C 1.03125 -1.1875 0.96875 -1.21875 0.875 -1.21875 C 0.8125 -1.21875 0.734375 -1.203125 0.640625 -1.171875 L 0.609375 -1.15625 L 0.609375 0 L 0.1875 0 Z M 0.1875 -1.5625 "/></g></g></g><g fill="#000000" fill-opacity="1"><g transform="translate(5.051025, 9.148245)"><g><path d="M 0.734375 0.03125 C 0.597656 0.03125 0.429688 0.015625 0.234375 -0.015625 L 0.140625 -0.03125 L 0.15625 -0.390625 C 0.40625 -0.347656 0.585938 -0.328125 0.703125 -0.328125 C 0.773438 -0.328125 0.832031 -0.335938 0.875 -0.359375 C 0.914062 -0.378906 0.9375 -0.410156 0.9375 -0.453125 C 0.9375 -0.492188 0.914062 -0.523438 0.875 -0.546875 C 0.832031 -0.566406 0.765625 -0.582031 0.671875 -0.59375 C 0.628906 -0.601562 0.601562 -0.609375 0.59375 -0.609375 C 0.488281 -0.628906 0.398438 -0.648438 0.328125 -0.671875 C 0.265625 -0.703125 0.210938 -0.75 0.171875 -0.8125 C 0.128906 -0.875 0.109375 -0.957031 0.109375 -1.0625 C 0.109375 -1.238281 0.160156 -1.367188 0.265625 -1.453125 C 0.378906 -1.546875 0.53125 -1.59375 0.71875 -1.59375 C 0.832031 -1.59375 1 -1.570312 1.21875 -1.53125 L 1.3125 -1.515625 L 1.3125 -1.171875 C 1.0625 -1.203125 0.875 -1.21875 0.75 -1.21875 C 0.675781 -1.21875 0.617188 -1.207031 0.578125 -1.1875 C 0.546875 -1.175781 0.53125 -1.148438 0.53125 -1.109375 C 0.53125 -1.066406 0.550781 -1.035156 0.59375 -1.015625 C 0.632812 -0.992188 0.703125 -0.976562 0.796875 -0.96875 L 0.90625 -0.953125 C 1.0625 -0.921875 1.175781 -0.867188 1.25 -0.796875 C 1.320312 -0.734375 1.359375 -0.628906 1.359375 -0.484375 C 1.359375 -0.304688 1.304688 -0.175781 1.203125 -0.09375 C 1.097656 -0.0078125 0.941406 0.03125 0.734375 0.03125 Z M 0.734375 0.03125 "/></g></g></g><g fill="#000000" fill-opacity="1"><g transform="translate(6.518066, 9.148245)"><g><path d="M 0.796875 0.03125 C 0.554688 0.03125 0.378906 -0.0234375 0.265625 -0.140625 C 0.160156 -0.265625 0.109375 -0.460938 0.109375 -0.734375 C 0.109375 -1.023438 0.164062 -1.238281 0.28125 -1.375 C 0.394531 -1.519531 0.570312 -1.59375 0.8125 -1.59375 C 1.03125 -1.59375 1.195312 -1.53125 1.3125 -1.40625 C 1.425781 -1.289062 1.484375 -1.117188 1.484375 -0.890625 L 1.453125 -0.59375 L 0.53125 -0.59375 C 0.539062 -0.519531 0.554688 -0.460938 0.578125 -0.421875 C 0.597656 -0.390625 0.628906 -0.363281 0.671875 -0.34375 C 0.722656 -0.332031 0.796875 -0.328125 0.890625 -0.328125 C 0.953125 -0.328125 1.03125 -0.328125 1.125 -0.328125 C 1.21875 -0.335938 1.289062 -0.34375 1.34375 -0.34375 L 1.421875 -0.359375 L 1.4375 -0.046875 C 1.195312 0.00390625 0.984375 0.03125 0.796875 0.03125 Z M 1.0625 -0.921875 C 1.0625 -1.046875 1.039062 -1.128906 1 -1.171875 C 0.96875 -1.222656 0.90625 -1.25 0.8125 -1.25 C 0.707031 -1.25 0.632812 -1.222656 0.59375 -1.171875 C 0.550781 -1.117188 0.53125 -1.035156 0.53125 -0.921875 Z M 1.0625 -0.921875 "/></g></g></g><g fill="#000000" fill-opacity="1"><g transform="translate(8.103214, 9.148245)"><g><path d="M 0.75 0.03125 C 0.53125 0.03125 0.367188 -0.03125 0.265625 -0.15625 C 0.171875 -0.28125 0.125 -0.488281 0.125 -0.78125 C 0.125 -1.0625 0.171875 -1.265625 0.265625 -1.390625 C 0.367188 -1.523438 0.539062 -1.59375 0.78125 -1.59375 C 0.84375 -1.59375 0.910156 -1.585938 0.984375 -1.578125 C 1.054688 -1.566406 1.148438 -1.550781 1.265625 -1.53125 L 1.265625 -1.1875 C 1.085938 -1.207031 0.960938 -1.21875 0.890625 -1.21875 C 0.796875 -1.21875 0.722656 -1.203125 0.671875 -1.171875 C 0.617188 -1.148438 0.582031 -1.109375 0.5625 -1.046875 C 0.550781 -0.984375 0.546875 -0.894531 0.546875 -0.78125 C 0.546875 -0.664062 0.550781 -0.578125 0.5625 -0.515625 C 0.582031 -0.453125 0.617188 -0.40625 0.671875 -0.375 C 0.722656 -0.34375 0.800781 -0.328125 0.90625 -0.328125 L 1.265625 -0.359375 L 1.265625 -0.03125 C 1.046875 0.0078125 0.875 0.03125 0.75 0.03125 Z M 0.75 0.03125 "/></g></g></g><g fill="#000000" fill-opacity="1"><g transform="translate(9.489441, 9.148245)"><g><path d="M 0.71875 0.03125 C 0.601562 0.03125 0.507812 0.015625 0.4375 -0.015625 C 0.375 -0.0546875 0.328125 -0.117188 0.296875 -0.203125 C 0.265625 -0.285156 0.25 -0.398438 0.25 -0.546875 L 0.25 -1.203125 L 0.078125 -1.203125 L 0.078125 -1.5625 L 0.25 -1.5625 L 0.25 -1.984375 L 0.671875 -1.984375 L 0.671875 -1.5625 L 1.046875 -1.5625 L 1.046875 -1.203125 L 0.671875 -1.203125 L 0.671875 -0.5625 C 0.671875 -0.476562 0.675781 -0.414062 0.6875 -0.375 C 0.707031 -0.34375 0.742188 -0.328125 0.796875 -0.328125 L 1.03125 -0.34375 L 1.0625 -0.015625 C 0.976562 0.00390625 0.910156 0.015625 0.859375 0.015625 C 0.816406 0.0234375 0.769531 0.03125 0.71875 0.03125 Z M 0.71875 0.03125 "/></g></g></g><g fill="#000000" fill-opacity="1"><g transform="translate(10.620801, 9.148245)"><g><path d="M 0.796875 0.03125 C 0.554688 0.03125 0.378906 -0.0234375 0.265625 -0.140625 C 0.160156 -0.265625 0.109375 -0.460938 0.109375 -0.734375 C 0.109375 -1.023438 0.164062 -1.238281 0.28125 -1.375 C 0.394531 -1.519531 0.570312 -1.59375 0.8125 -1.59375 C 1.03125 -1.59375 1.195312 -1.53125 1.3125 -1.40625 C 1.425781 -1.289062 1.484375 -1.117188 1.484375 -0.890625 L 1.453125 -0.59375 L 0.53125 -0.59375 C 0.539062 -0.519531 0.554688 -0.460938 0.578125 -0.421875 C 0.597656 -0.390625 0.628906 -0.363281 0.671875 -0.34375 C 0.722656 -0.332031 0.796875 -0.328125 0.890625 -0.328125 C 0.953125 -0.328125 1.03125 -0.328125 1.125 -0.328125 C 1.21875 -0.335938 1.289062 -0.34375 1.34375 -0.34375 L 1.421875 -0.359375 L 1.4375 -0.046875 C 1.195312 0.00390625 0.984375 0.03125 0.796875 0.03125 Z M 1.0625 -0.921875 C 1.0625 -1.046875 1.039062 -1.128906 1 -1.171875 C 0.96875 -1.222656 0.90625 -1.25 0.8125 -1.25 C 0.707031 -1.25 0.632812 -1.222656 0.59375 -1.171875 C 0.550781 -1.117188 0.53125 -1.035156 0.53125 -0.921875 Z M 1.0625 -0.921875 "/></g></g></g><g fill="#000000" fill-opacity="1"><g transform="translate(12.205949, 9.148245)"><g><path d="M 0.71875 0.03125 C 0.601562 0.03125 0.507812 0.015625 0.4375 -0.015625 C 0.375 -0.0546875 0.328125 -0.117188 0.296875 -0.203125 C 0.265625 -0.285156 0.25 -0.398438 0.25 -0.546875 L 0.25 -1.203125 L 0.078125 -1.203125 L 0.078125 -1.5625 L 0.25 -1.5625 L 0.25 -1.984375 L 0.671875 -1.984375 L 0.671875 -1.5625 L 1.046875 -1.5625 L 1.046875 -1.203125 L 0.671875 -1.203125 L 0.671875 -0.5625 C 0.671875 -0.476562 0.675781 -0.414062 0.6875 -0.375 C 0.707031 -0.34375 0.742188 -0.328125 0.796875 -0.328125 L 1.03125 -0.34375 L 1.0625 -0.015625 C 0.976562 0.00390625 0.910156 0.015625 0.859375 0.015625 C 0.816406 0.0234375 0.769531 0.03125 0.71875 0.03125 Z M 0.71875 0.03125 "/></g></g></g><g fill="#000000" fill-opacity="1"><g transform="translate(13.337309, 9.148245)"><g><path d="M 0.703125 0.03125 C 0.566406 0.03125 0.457031 0.00390625 0.375 -0.046875 C 0.300781 -0.0976562 0.25 -0.175781 0.21875 -0.28125 C 0.1875 -0.394531 0.171875 -0.546875 0.171875 -0.734375 L 0.171875 -1.5625 L 0.59375 -1.5625 L 0.59375 -0.734375 C 0.59375 -0.617188 0.597656 -0.535156 0.609375 -0.484375 C 0.617188 -0.429688 0.640625 -0.390625 0.671875 -0.359375 C 0.703125 -0.335938 0.753906 -0.328125 0.828125 -0.328125 C 0.867188 -0.328125 0.90625 -0.332031 0.9375 -0.34375 C 0.976562 -0.351562 1.035156 -0.367188 1.109375 -0.390625 L 1.109375 -1.5625 L 1.53125 -1.5625 L 1.53125 0 L 1.109375 0 L 1.109375 -0.09375 C 1.023438 -0.0390625 0.953125 -0.0078125 0.890625 0 C 0.828125 0.0195312 0.765625 0.03125 0.703125 0.03125 Z M 0.703125 0.03125 "/></g></g></g><g fill="#000000" fill-opacity="1"><g transform="translate(15.056107, 9.148245)"><g><path d="M 0.1875 -1.5625 L 0.609375 -1.5625 L 0.609375 -1.390625 C 0.785156 -1.492188 0.953125 -1.5625 1.109375 -1.59375 L 1.109375 -1.171875 C 0.953125 -1.140625 0.804688 -1.101562 0.671875 -1.0625 L 0.609375 -1.046875 L 0.609375 0 L 0.1875 0 Z M 0.1875 -1.5625 "/></g></g></g><g fill="#000000" fill-opacity="1"><g transform="translate(16.212334, 9.148245)"><g/></g></g><g fill="#000000" fill-opacity="1"><g transform="translate(16.896122, 9.148245)"><g><path d="M 0.578125 0.03125 C 0.253906 0.03125 0.09375 -0.132812 0.09375 -0.46875 C 0.09375 -0.632812 0.132812 -0.753906 0.21875 -0.828125 C 0.300781 -0.898438 0.441406 -0.941406 0.640625 -0.953125 L 0.96875 -0.96875 L 0.96875 -1.0625 C 0.96875 -1.125 0.953125 -1.164062 0.921875 -1.1875 C 0.898438 -1.21875 0.851562 -1.234375 0.78125 -1.234375 C 0.71875 -1.234375 0.625 -1.226562 0.5 -1.21875 C 0.375 -1.21875 0.273438 -1.21875 0.203125 -1.21875 L 0.1875 -1.5 C 0.40625 -1.5625 0.617188 -1.59375 0.828125 -1.59375 C 1.023438 -1.59375 1.164062 -1.550781 1.25 -1.46875 C 1.34375 -1.382812 1.390625 -1.25 1.390625 -1.0625 L 1.390625 -0.421875 C 1.390625 -0.367188 1.394531 -0.332031 1.40625 -0.3125 C 1.425781 -0.300781 1.453125 -0.289062 1.484375 -0.28125 L 1.46875 0.03125 C 1.363281 0.03125 1.28125 0.0234375 1.21875 0.015625 C 1.15625 0.00390625 1.09375 -0.0234375 1.03125 -0.078125 C 0.875 -0.00390625 0.722656 0.03125 0.578125 0.03125 Z M 0.65625 -0.296875 C 0.738281 -0.296875 0.828125 -0.3125 0.921875 -0.34375 L 0.96875 -0.34375 L 0.96875 -0.6875 L 0.6875 -0.65625 C 0.570312 -0.644531 0.515625 -0.582031 0.515625 -0.46875 C 0.515625 -0.351562 0.5625 -0.296875 0.65625 -0.296875 Z M 0.65625 -0.296875 "/></g></g></g><g fill="#000000" fill-opacity="1"><g transform="translate(18.484381, 9.148245)"><g><path d="M 0.703125 0.03125 C 0.492188 0.03125 0.34375 -0.03125 0.25 -0.15625 C 0.164062 -0.289062 0.125 -0.488281 0.125 -0.75 C 0.125 -1.039062 0.171875 -1.253906 0.265625 -1.390625 C 0.367188 -1.523438 0.53125 -1.59375 0.75 -1.59375 C 0.820312 -1.59375 0.9375 -1.578125 1.09375 -1.546875 L 1.09375 -2.171875 L 1.515625 -2.171875 L 1.515625 0 L 1.09375 0 L 1.09375 -0.0625 C 1.007812 -0.0195312 0.9375 0.00390625 0.875 0.015625 C 0.820312 0.0234375 0.765625 0.03125 0.703125 0.03125 Z M 0.796875 -0.328125 C 0.867188 -0.328125 0.953125 -0.34375 1.046875 -0.375 L 1.09375 -0.375 L 1.09375 -1.203125 C 0.988281 -1.222656 0.898438 -1.234375 0.828125 -1.234375 C 0.722656 -1.234375 0.648438 -1.195312 0.609375 -1.125 C 0.566406 -1.050781 0.546875 -0.929688 0.546875 -0.765625 C 0.546875 -0.609375 0.5625 -0.492188 0.59375 -0.421875 C 0.632812 -0.359375 0.703125 -0.328125 0.796875 -0.328125 Z M 0.796875 -0.328125 "/></g></g></g><g fill="#000000" fill-opacity="1"><g transform="translate(20.190746, 9.148245)"><g><path d="M 0.1875 0 Z M 0.1875 -1.5625 L 0.609375 -1.5625 L 0.609375 0 L 0.1875 0 Z M 0.1875 -2.1875 L 0.609375 -2.1875 L 0.609375 -1.765625 L 0.1875 -1.765625 Z M 0.1875 -2.1875 "/></g></g></g><g fill="#000000" fill-opacity="1"><g transform="translate(20.992645, 9.148245)"><g><path d="M 0.1875 -1.5625 L 0.609375 -1.5625 L 0.609375 -1.46875 C 0.691406 -1.519531 0.757812 -1.550781 0.8125 -1.5625 C 0.863281 -1.582031 0.921875 -1.59375 0.984375 -1.59375 C 1.179688 -1.59375 1.328125 -1.523438 1.421875 -1.390625 C 1.523438 -1.265625 1.578125 -1.054688 1.578125 -0.765625 C 1.578125 -0.566406 1.550781 -0.410156 1.5 -0.296875 C 1.457031 -0.179688 1.382812 -0.0976562 1.28125 -0.046875 C 1.175781 0.00390625 1.039062 0.03125 0.875 0.03125 C 0.789062 0.03125 0.703125 0.0234375 0.609375 0.015625 L 0.609375 0.65625 L 0.1875 0.65625 Z M 0.828125 -0.328125 C 0.941406 -0.328125 1.023438 -0.359375 1.078125 -0.421875 C 1.128906 -0.492188 1.15625 -0.609375 1.15625 -0.765625 C 1.15625 -0.921875 1.128906 -1.035156 1.078125 -1.109375 C 1.035156 -1.179688 0.96875 -1.21875 0.875 -1.21875 C 0.800781 -1.21875 0.722656 -1.203125 0.640625 -1.171875 L 0.609375 -1.15625 L 0.609375 -0.34375 C 0.703125 -0.332031 0.773438 -0.328125 0.828125 -0.328125 Z M 0.828125 -0.328125 "/></g></g></g><g fill="#000000" fill-opacity="1"><g transform="translate(22.68347, 9.148245)"><g><path d="M 0.1875 0 Z M 0.1875 -1.5625 L 0.609375 -1.5625 L 0.609375 0 L 0.1875 0 Z M 0.1875 -2.1875 L 0.609375 -2.1875 L 0.609375 -1.765625 L 0.1875 -1.765625 Z M 0.1875 -2.1875 "/></g></g></g><g fill="#000000" fill-opacity="1"><g transform="translate(23.485369, 9.148245)"><g><path d="M 0.734375 0.03125 C 0.597656 0.03125 0.429688 0.015625 0.234375 -0.015625 L 0.140625 -0.03125 L 0.15625 -0.390625 C 0.40625 -0.347656 0.585938 -0.328125 0.703125 -0.328125 C 0.773438 -0.328125 0.832031 -0.335938 0.875 -0.359375 C 0.914062 -0.378906 0.9375 -0.410156 0.9375 -0.453125 C 0.9375 -0.492188 0.914062 -0.523438 0.875 -0.546875 C 0.832031 -0.566406 0.765625 -0.582031 0.671875 -0.59375 C 0.628906 -0.601562 0.601562 -0.609375 0.59375 -0.609375 C 0.488281 -0.628906 0.398438 -0.648438 0.328125 -0.671875 C 0.265625 -0.703125 0.210938 -0.75 0.171875 -0.8125 C 0.128906 -0.875 0.109375 -0.957031 0.109375 -1.0625 C 0.109375 -1.238281 0.160156 -1.367188 0.265625 -1.453125 C 0.378906 -1.546875 0.53125 -1.59375 0.71875 -1.59375 C 0.832031 -1.59375 1 -1.570312 1.21875 -1.53125 L 1.3125 -1.515625 L 1.3125 -1.171875 C 1.0625 -1.203125 0.875 -1.21875 0.75 -1.21875 C 0.675781 -1.21875 0.617188 -1.207031 0.578125 -1.1875 C 0.546875 -1.175781 0.53125 -1.148438 0.53125 -1.109375 C 0.53125 -1.066406 0.550781 -1.035156 0.59375 -1.015625 C 0.632812 -0.992188 0.703125 -0.976562 0.796875 -0.96875 L 0.90625 -0.953125 C 1.0625 -0.921875 1.175781 -0.867188 1.25 -0.796875 C 1.320312 -0.734375 1.359375 -0.628906 1.359375 -0.484375 C 1.359375 -0.304688 1.304688 -0.175781 1.203125 -0.09375 C 1.097656 -0.0078125 0.941406 0.03125 0.734375 0.03125 Z M 0.734375 0.03125 "/></g></g></g><g fill="#000000" fill-opacity="1"><g transform="translate(24.95241, 9.148245)"><g><path d="M 0.1875 0 Z M 0.1875 -1.5625 L 0.609375 -1.5625 L 0.609375 0 L 0.1875 0 Z M 0.1875 -2.1875 L 0.609375 -2.1875 L 0.609375 -1.765625 L 0.1875 -1.765625 Z M 0.1875 -2.1875 "/></g></g></g><g fill="#000000" fill-opacity="1"><g transform="translate(25.754309, 9.148245)"><g><path d="M 0.75 0.03125 C 0.53125 0.03125 0.367188 -0.03125 0.265625 -0.15625 C 0.171875 -0.28125 0.125 -0.488281 0.125 -0.78125 C 0.125 -1.0625 0.171875 -1.265625 0.265625 -1.390625 C 0.367188 -1.523438 0.539062 -1.59375 0.78125 -1.59375 C 0.84375 -1.59375 0.910156 -1.585938 0.984375 -1.578125 C 1.054688 -1.566406 1.148438 -1.550781 1.265625 -1.53125 L 1.265625 -1.1875 C 1.085938 -1.207031 0.960938 -1.21875 0.890625 -1.21875 C 0.796875 -1.21875 0.722656 -1.203125 0.671875 -1.171875 C 0.617188 -1.148438 0.582031 -1.109375 0.5625 -1.046875 C 0.550781 -0.984375 0.546875 -0.894531 0.546875 -0.78125 C 0.546875 -0.664062 0.550781 -0.578125 0.5625 -0.515625 C 0.582031 -0.453125 0.617188 -0.40625 0.671875 -0.375 C 0.722656 -0.34375 0.800781 -0.328125 0.90625 -0.328125 L 1.265625 -0.359375 L 1.265625 -0.03125 C 1.046875 0.0078125 0.875 0.03125 0.75 0.03125 Z M 0.75 0.03125 "/></g></g></g><g fill="#000000" fill-opacity="1"><g transform="translate(27.140537, 9.148245)"><g><path d="M 0.1875 0 Z M 0.1875 -1.5625 L 0.609375 -1.5625 L 0.609375 0 L 0.1875 0 Z M 0.1875 -2.1875 L 0.609375 -2.1875 L 0.609375 -1.765625 L 0.1875 -1.765625 Z M 0.1875 -2.1875 "/></g></g></g><g fill="#000000" fill-opacity="1"><g transform="translate(27.942436, 9.148245)"><g><path d="M 0.1875 -1.5625 L 0.609375 -1.5625 L 0.609375 -1.46875 C 0.679688 -1.507812 0.75 -1.539062 0.8125 -1.5625 C 0.875 -1.582031 0.941406 -1.59375 1.015625 -1.59375 C 1.203125 -1.59375 1.335938 -1.53125 1.421875 -1.40625 C 1.503906 -1.28125 1.546875 -1.09375 1.546875 -0.84375 L 1.546875 0 L 1.125 0 L 1.125 -0.828125 C 1.125 -0.972656 1.101562 -1.070312 1.0625 -1.125 C 1.03125 -1.1875 0.96875 -1.21875 0.875 -1.21875 C 0.8125 -1.21875 0.734375 -1.203125 0.640625 -1.171875 L 0.609375 -1.15625 L 0.609375 0 L 0.1875 0 Z M 0.1875 -1.5625 "/></g></g></g><g fill="#000000" fill-opacity="1"><g transform="translate(29.661234, 9.148245)"><g><path d="M 0.8125 0.71875 C 0.59375 0.71875 0.421875 0.679688 0.296875 0.609375 C 0.171875 0.546875 0.109375 0.441406 0.109375 0.296875 C 0.109375 0.222656 0.125 0.15625 0.15625 0.09375 C 0.195312 0.03125 0.257812 -0.03125 0.34375 -0.09375 C 0.300781 -0.113281 0.269531 -0.144531 0.25 -0.1875 C 0.226562 -0.226562 0.21875 -0.269531 0.21875 -0.3125 C 0.21875 -0.34375 0.222656 -0.375 0.234375 -0.40625 C 0.253906 -0.4375 0.289062 -0.492188 0.34375 -0.578125 C 0.207031 -0.679688 0.140625 -0.832031 0.140625 -1.03125 C 0.140625 -1.21875 0.195312 -1.351562 0.3125 -1.4375 C 0.425781 -1.53125 0.582031 -1.578125 0.78125 -1.578125 C 0.875 -1.578125 0.976562 -1.566406 1.09375 -1.546875 L 1.59375 -1.5625 L 1.59375 -1.234375 L 1.375 -1.25 C 1.394531 -1.207031 1.410156 -1.171875 1.421875 -1.140625 C 1.429688 -1.109375 1.4375 -1.0625 1.4375 -1 C 1.4375 -0.820312 1.382812 -0.691406 1.28125 -0.609375 C 1.175781 -0.523438 1.015625 -0.484375 0.796875 -0.484375 C 0.734375 -0.484375 0.6875 -0.488281 0.65625 -0.5 C 0.632812 -0.445312 0.625 -0.40625 0.625 -0.375 C 0.625 -0.332031 0.644531 -0.304688 0.6875 -0.296875 C 0.726562 -0.285156 0.804688 -0.28125 0.921875 -0.28125 C 1.078125 -0.269531 1.203125 -0.253906 1.296875 -0.234375 C 1.398438 -0.210938 1.472656 -0.171875 1.515625 -0.109375 C 1.566406 -0.046875 1.59375 0.046875 1.59375 0.171875 C 1.59375 0.359375 1.53125 0.492188 1.40625 0.578125 C 1.28125 0.671875 1.082031 0.71875 0.8125 0.71875 Z M 0.796875 -0.8125 C 0.953125 -0.8125 1.03125 -0.882812 1.03125 -1.03125 C 1.03125 -1.1875 0.953125 -1.265625 0.796875 -1.265625 C 0.628906 -1.265625 0.546875 -1.1875 0.546875 -1.03125 C 0.546875 -0.882812 0.628906 -0.8125 0.796875 -0.8125 Z M 0.84375 0.375 C 0.957031 0.375 1.039062 0.359375 1.09375 0.328125 C 1.15625 0.304688 1.1875 0.265625 1.1875 0.203125 C 1.1875 0.148438 1.164062 0.117188 1.125 0.109375 C 1.082031 0.0976562 1.035156 0.0859375 0.984375 0.078125 C 0.941406 0.078125 0.910156 0.078125 0.890625 0.078125 L 0.609375 0.0625 C 0.554688 0.113281 0.53125 0.171875 0.53125 0.234375 C 0.53125 0.285156 0.554688 0.320312 0.609375 0.34375 C 0.660156 0.363281 0.738281 0.375 0.84375 0.375 Z M 0.84375 0.375 "/></g></g></g><g fill="#000000" fill-opacity="1"><g transform="translate(31.320979, 9.148245)"><g/></g></g><g fill="#000000" fill-opacity="1"><g transform="translate(32.004768, 9.148245)"><g><path d="M 0.796875 0.03125 C 0.554688 0.03125 0.378906 -0.0234375 0.265625 -0.140625 C 0.160156 -0.265625 0.109375 -0.460938 0.109375 -0.734375 C 0.109375 -1.023438 0.164062 -1.238281 0.28125 -1.375 C 0.394531 -1.519531 0.570312 -1.59375 0.8125 -1.59375 C 1.03125 -1.59375 1.195312 -1.53125 1.3125 -1.40625 C 1.425781 -1.289062 1.484375 -1.117188 1.484375 -0.890625 L 1.453125 -0.59375 L 0.53125 -0.59375 C 0.539062 -0.519531 0.554688 -0.460938 0.578125 -0.421875 C 0.597656 -0.390625 0.628906 -0.363281 0.671875 -0.34375 C 0.722656 -0.332031 0.796875 -0.328125 0.890625 -0.328125 C 0.953125 -0.328125 1.03125 -0.328125 1.125 -0.328125 C 1.21875 -0.335938 1.289062 -0.34375 1.34375 -0.34375 L 1.421875 -0.359375 L 1.4375 -0.046875 C 1.195312 0.00390625 0.984375 0.03125 0.796875 0.03125 Z M 1.0625 -0.921875 C 1.0625 -1.046875 1.039062 -1.128906 1 -1.171875 C 0.96875 -1.222656 0.90625 -1.25 0.8125 -1.25 C 0.707031 -1.25 0.632812 -1.222656 0.59375 -1.171875 C 0.550781 -1.117188 0.53125 -1.035156 0.53125 -0.921875 Z M 1.0625 -0.921875 "/></g></g></g><g fill="#000000" fill-opacity="1"><g transform="translate(33.589916, 9.148245)"><g><path d="M 0.21875 -2.171875 L 0.625 -2.171875 L 0.625 0 L 0.21875 0 Z M 0.21875 -2.171875 "/></g></g></g><g fill="#000000" fill-opacity="1"><g transform="translate(34.429111, 9.148245)"><g><path d="M 0.1875 0 Z M 0.1875 -1.5625 L 0.609375 -1.5625 L 0.609375 0 L 0.1875 0 Z M 0.1875 -2.1875 L 0.609375 -2.1875 L 0.609375 -1.765625 L 0.1875 -1.765625 Z M 0.1875 -2.1875 "/></g></g></g><g fill="#000000" fill-opacity="1"><g transform="translate(35.23101, 9.148245)"><g><path d="M 0.71875 0.03125 C 0.601562 0.03125 0.507812 0.015625 0.4375 -0.015625 C 0.375 -0.0546875 0.328125 -0.117188 0.296875 -0.203125 C 0.265625 -0.285156 0.25 -0.398438 0.25 -0.546875 L 0.25 -1.203125 L 0.078125 -1.203125 L 0.078125 -1.5625 L 0.25 -1.5625 L 0.25 -1.984375 L 0.671875 -1.984375 L 0.671875 -1.5625 L 1.046875 -1.5625 L 1.046875 -1.203125 L 0.671875 -1.203125 L 0.671875 -0.5625 C 0.671875 -0.476562 0.675781 -0.414062 0.6875 -0.375 C 0.707031 -0.34375 0.742188 -0.328125 0.796875 -0.328125 L 1.03125 -0.34375 L 1.0625 -0.015625 C 0.976562 0.00390625 0.910156 0.015625 0.859375 0.015625 C 0.816406 0.0234375 0.769531 0.03125 0.71875 0.03125 Z M 0.71875 0.03125 "/></g></g></g><g fill="#000000" fill-opacity="1"><g transform="translate(36.36237, 9.148245)"><g><path d="M 0.171875 -0.515625 L 0.625 -0.515625 L 0.625 0 L 0.171875 0 Z M 0.171875 -0.515625 "/></g></g></g><g fill="#000000" fill-opacity="1"><g transform="translate(37.158053, 9.148245)"><g/></g></g><g fill="#000000" fill-opacity="1"><g transform="translate(37.841841, 9.148245)"><g><path d="M 0.234375 -2.109375 L 1.046875 -2.109375 C 1.546875 -2.109375 1.796875 -1.878906 1.796875 -1.421875 C 1.796875 -1.140625 1.691406 -0.9375 1.484375 -0.8125 L 1.78125 0 L 1.3125 0 L 1.078125 -0.703125 L 0.65625 -0.703125 L 0.65625 0 L 0.234375 0 Z M 1.0625 -1.078125 C 1.15625 -1.078125 1.226562 -1.109375 1.28125 -1.171875 C 1.332031 -1.234375 1.359375 -1.316406 1.359375 -1.421875 C 1.359375 -1.515625 1.332031 -1.59375 1.28125 -1.65625 C 1.226562 -1.71875 1.148438 -1.75 1.046875 -1.75 L 0.65625 -1.75 L 0.65625 -1.078125 Z M 1.0625 -1.078125 "/></g></g></g><g fill="#000000" fill-opacity="1"><g transform="translate(39.768883, 9.148245)"><g><path d="M 0.796875 0.03125 C 0.554688 0.03125 0.378906 -0.0234375 0.265625 -0.140625 C 0.160156 -0.265625 0.109375 -0.460938 0.109375 -0.734375 C 0.109375 -1.023438 0.164062 -1.238281 0.28125 -1.375 C 0.394531 -1.519531 0.570312 -1.59375 0.8125 -1.59375 C 1.03125 -1.59375 1.195312 -1.53125 1.3125 -1.40625 C 1.425781 -1.289062 1.484375 -1.117188 1.484375 -0.890625 L 1.453125 -0.59375 L 0.53125 -0.59375 C 0.539062 -0.519531 0.554688 -0.460938 0.578125 -0.421875 C 0.597656 -0.390625 0.628906 -0.363281 0.671875 -0.34375 C 0.722656 -0.332031 0.796875 -0.328125 0.890625 -0.328125 C 0.953125 -0.328125 1.03125 -0.328125 1.125 -0.328125 C 1.21875 -0.335938 1.289062 -0.34375 1.34375 -0.34375 L 1.421875 -0.359375 L 1.4375 -0.046875 C 1.195312 0.00390625 0.984375 0.03125 0.796875 0.03125 Z M 1.0625 -0.921875 C 1.0625 -1.046875 1.039062 -1.128906 1 -1.171875 C 0.96875 -1.222656 0.90625 -1.25 0.8125 -1.25 C 0.707031 -1.25 0.632812 -1.222656 0.59375 -1.171875 C 0.550781 -1.117188 0.53125 -1.035156 0.53125 -0.921875 Z M 1.0625 -0.921875 "/></g></g></g><g fill="#000000" fill-opacity="1"><g transform="translate(41.354031, 9.148245)"><g><path d="M 0.1875 -1.5625 L 0.609375 -1.5625 L 0.609375 -1.390625 C 0.785156 -1.492188 0.953125 -1.5625 1.109375 -1.59375 L 1.109375 -1.171875 C 0.953125 -1.140625 0.804688 -1.101562 0.671875 -1.0625 L 0.609375 -1.046875 L 0.609375 0 L 0.1875 0 Z M 0.1875 -1.5625 "/></g></g></g><g fill="#000000" fill-opacity="1"><g transform="translate(42.510258, 9.148245)"><g><path d="M 0.703125 0.03125 C 0.566406 0.03125 0.457031 0.00390625 0.375 -0.046875 C 0.300781 -0.0976562 0.25 -0.175781 0.21875 -0.28125 C 0.1875 -0.394531 0.171875 -0.546875 0.171875 -0.734375 L 0.171875 -1.5625 L 0.59375 -1.5625 L 0.59375 -0.734375 C 0.59375 -0.617188 0.597656 -0.535156 0.609375 -0.484375 C 0.617188 -0.429688 0.640625 -0.390625 0.671875 -0.359375 C 0.703125 -0.335938 0.753906 -0.328125 0.828125 -0.328125 C 0.867188 -0.328125 0.90625 -0.332031 0.9375 -0.34375 C 0.976562 -0.351562 1.035156 -0.367188 1.109375 -0.390625 L 1.109375 -1.5625 L 1.53125 -1.5625 L 1.53125 0 L 1.109375 0 L 1.109375 -0.09375 C 1.023438 -0.0390625 0.953125 -0.0078125 0.890625 0 C 0.828125 0.0195312 0.765625 0.03125 0.703125 0.03125 Z M 0.703125 0.03125 "/></g></g></g><g clip-path="url(#b9c21968da)"><g fill="#000000" fill-opacity="1"><g transform="translate(44.229057, 9.148245)"><g><path d="M 0.1875 -1.5625 L 0.609375 -1.5625 L 0.609375 -1.46875 C 0.679688 -1.507812 0.742188 -1.539062 0.796875 -1.5625 C 0.859375 -1.582031 0.921875 -1.59375 0.984375 -1.59375 C 1.054688 -1.59375 1.125 -1.578125 1.1875 -1.546875 C 1.257812 -1.523438 1.316406 -1.492188 1.359375 -1.453125 C 1.460938 -1.492188 1.554688 -1.523438 1.640625 -1.546875 C 1.722656 -1.578125 1.8125 -1.59375 1.90625 -1.59375 C 2.09375 -1.59375 2.226562 -1.53125 2.3125 -1.40625 C 2.394531 -1.289062 2.4375 -1.101562 2.4375 -0.84375 L 2.4375 0 L 2.015625 0 L 2.015625 -0.828125 C 2.015625 -0.960938 2 -1.0625 1.96875 -1.125 C 1.9375 -1.1875 1.878906 -1.21875 1.796875 -1.21875 C 1.734375 -1.21875 1.65625 -1.203125 1.5625 -1.171875 L 1.515625 -1.15625 C 1.515625 -1.019531 1.515625 -0.90625 1.515625 -0.8125 L 1.515625 0 L 1.109375 0 L 1.109375 -0.796875 C 1.109375 -0.910156 1.097656 -0.992188 1.078125 -1.046875 C 1.066406 -1.109375 1.046875 -1.148438 1.015625 -1.171875 C 0.984375 -1.203125 0.9375 -1.21875 0.875 -1.21875 C 0.8125 -1.21875 0.734375 -1.203125 0.640625 -1.171875 L 0.609375 -1.15625 L 0.609375 0 L 0.1875 0 Z M 0.1875 -1.5625 "/></g></g></g></g><g clip-path="url(#717306badd)"><g fill="#000000" fill-opacity="1"><g transform="translate(0.29247, 13.292395)"><g><path d="M 0.1875 -1.5625 L 0.609375 -1.5625 L 0.609375 -1.46875 C 0.679688 -1.507812 0.75 -1.539062 0.8125 -1.5625 C 0.875 -1.582031 0.941406 -1.59375 1.015625 -1.59375 C 1.203125 -1.59375 1.335938 -1.53125 1.421875 -1.40625 C 1.503906 -1.28125 1.546875 -1.09375 1.546875 -0.84375 L 1.546875 0 L 1.125 0 L 1.125 -0.828125 C 1.125 -0.972656 1.101562 -1.070312 1.0625 -1.125 C 1.03125 -1.1875 0.96875 -1.21875 0.875 -1.21875 C 0.8125 -1.21875 0.734375 -1.203125 0.640625 -1.171875 L 0.609375 -1.15625 L 0.609375 0 L 0.1875 0 Z M 0.1875 -1.5625 "/></g></g></g></g><g fill="#000000" fill-opacity="1"><g transform="translate(2.011269, 13.292395)"><g><path d="M 0.828125 0.03125 C 0.585938 0.03125 0.40625 -0.0351562 0.28125 -0.171875 C 0.164062 -0.316406 0.109375 -0.519531 0.109375 -0.78125 C 0.109375 -1.039062 0.164062 -1.238281 0.28125 -1.375 C 0.40625 -1.519531 0.585938 -1.59375 0.828125 -1.59375 C 1.054688 -1.59375 1.234375 -1.519531 1.359375 -1.375 C 1.484375 -1.238281 1.546875 -1.039062 1.546875 -0.78125 C 1.546875 -0.519531 1.484375 -0.316406 1.359375 -0.171875 C 1.234375 -0.0351562 1.054688 0.03125 0.828125 0.03125 Z M 0.828125 -0.3125 C 0.921875 -0.3125 0.992188 -0.347656 1.046875 -0.421875 C 1.097656 -0.492188 1.125 -0.613281 1.125 -0.78125 C 1.125 -0.945312 1.097656 -1.0625 1.046875 -1.125 C 0.992188 -1.195312 0.921875 -1.234375 0.828125 -1.234375 C 0.722656 -1.234375 0.644531 -1.195312 0.59375 -1.125 C 0.550781 -1.0625 0.53125 -0.945312 0.53125 -0.78125 C 0.53125 -0.613281 0.550781 -0.492188 0.59375 -0.421875 C 0.644531 -0.347656 0.722656 -0.3125 0.828125 -0.3125 Z M 0.828125 -0.3125 "/></g></g></g><g fill="#000000" fill-opacity="1"><g transform="translate(3.664797, 13.292395)"><g><path d="M 0.828125 0.03125 C 0.679688 0.03125 0.507812 0.0195312 0.3125 0 L 0.1875 0 L 0.1875 -2.171875 L 0.609375 -2.171875 L 0.609375 -1.515625 C 0.691406 -1.546875 0.753906 -1.566406 0.796875 -1.578125 C 0.847656 -1.585938 0.90625 -1.59375 0.96875 -1.59375 C 1.175781 -1.59375 1.328125 -1.53125 1.421875 -1.40625 C 1.523438 -1.28125 1.578125 -1.070312 1.578125 -0.78125 C 1.578125 -0.570312 1.550781 -0.410156 1.5 -0.296875 C 1.445312 -0.179688 1.367188 -0.0976562 1.265625 -0.046875 C 1.160156 0.00390625 1.015625 0.03125 0.828125 0.03125 Z M 0.8125 -0.328125 C 0.9375 -0.328125 1.023438 -0.359375 1.078125 -0.421875 C 1.128906 -0.492188 1.15625 -0.613281 1.15625 -0.78125 C 1.15625 -0.9375 1.128906 -1.046875 1.078125 -1.109375 C 1.035156 -1.179688 0.96875 -1.21875 0.875 -1.21875 C 0.800781 -1.21875 0.710938 -1.203125 0.609375 -1.171875 L 0.609375 -0.34375 C 0.691406 -0.332031 0.757812 -0.328125 0.8125 -0.328125 Z M 0.8125 -0.328125 "/></g></g></g><g fill="#000000" fill-opacity="1"><g transform="translate(5.355622, 13.292395)"><g><path d="M 0.1875 0 Z M 0.1875 -1.5625 L 0.609375 -1.5625 L 0.609375 0 L 0.1875 0 Z M 0.1875 -2.1875 L 0.609375 -2.1875 L 0.609375 -1.765625 L 0.1875 -1.765625 Z M 0.1875 -2.1875 "/></g></g></g><g fill="#000000" fill-opacity="1"><g transform="translate(6.157521, 13.292395)"><g><path d="M 0.734375 0.03125 C 0.597656 0.03125 0.429688 0.015625 0.234375 -0.015625 L 0.140625 -0.03125 L 0.15625 -0.390625 C 0.40625 -0.347656 0.585938 -0.328125 0.703125 -0.328125 C 0.773438 -0.328125 0.832031 -0.335938 0.875 -0.359375 C 0.914062 -0.378906 0.9375 -0.410156 0.9375 -0.453125 C 0.9375 -0.492188 0.914062 -0.523438 0.875 -0.546875 C 0.832031 -0.566406 0.765625 -0.582031 0.671875 -0.59375 C 0.628906 -0.601562 0.601562 -0.609375 0.59375 -0.609375 C 0.488281 -0.628906 0.398438 -0.648438 0.328125 -0.671875 C 0.265625 -0.703125 0.210938 -0.75 0.171875 -0.8125 C 0.128906 -0.875 0.109375 -0.957031 0.109375 -1.0625 C 0.109375 -1.238281 0.160156 -1.367188 0.265625 -1.453125 C 0.378906 -1.546875 0.53125 -1.59375 0.71875 -1.59375 C 0.832031 -1.59375 1 -1.570312 1.21875 -1.53125 L 1.3125 -1.515625 L 1.3125 -1.171875 C 1.0625 -1.203125 0.875 -1.21875 0.75 -1.21875 C 0.675781 -1.21875 0.617188 -1.207031 0.578125 -1.1875 C 0.546875 -1.175781 0.53125 -1.148438 0.53125 -1.109375 C 0.53125 -1.066406 0.550781 -1.035156 0.59375 -1.015625 C 0.632812 -0.992188 0.703125 -0.976562 0.796875 -0.96875 L 0.90625 -0.953125 C 1.0625 -0.921875 1.175781 -0.867188 1.25 -0.796875 C 1.320312 -0.734375 1.359375 -0.628906 1.359375 -0.484375 C 1.359375 -0.304688 1.304688 -0.175781 1.203125 -0.09375 C 1.097656 -0.0078125 0.941406 0.03125 0.734375 0.03125 Z M 0.734375 0.03125 "/></g></g></g><g fill="#000000" fill-opacity="1"><g transform="translate(7.624563, 13.292395)"><g/></g></g><g fill="#000000" fill-opacity="1"><g transform="translate(8.308351, 13.292395)"><g><path d="M 0.1875 -1.5625 L 0.609375 -1.5625 L 0.609375 -1.390625 C 0.785156 -1.492188 0.953125 -1.5625 1.109375 -1.59375 L 1.109375 -1.171875 C 0.953125 -1.140625 0.804688 -1.101562 0.671875 -1.0625 L 0.609375 -1.046875 L 0.609375 0 L 0.1875 0 Z M 0.1875 -1.5625 "/></g></g></g><g fill="#000000" fill-opacity="1"><g transform="translate(9.464578, 13.292395)"><g><path d="M 0.796875 0.03125 C 0.554688 0.03125 0.378906 -0.0234375 0.265625 -0.140625 C 0.160156 -0.265625 0.109375 -0.460938 0.109375 -0.734375 C 0.109375 -1.023438 0.164062 -1.238281 0.28125 -1.375 C 0.394531 -1.519531 0.570312 -1.59375 0.8125 -1.59375 C 1.03125 -1.59375 1.195312 -1.53125 1.3125 -1.40625 C 1.425781 -1.289062 1.484375 -1.117188 1.484375 -0.890625 L 1.453125 -0.59375 L 0.53125 -0.59375 C 0.539062 -0.519531 0.554688 -0.460938 0.578125 -0.421875 C 0.597656 -0.390625 0.628906 -0.363281 0.671875 -0.34375 C 0.722656 -0.332031 0.796875 -0.328125 0.890625 -0.328125 C 0.953125 -0.328125 1.03125 -0.328125 1.125 -0.328125 C 1.21875 -0.335938 1.289062 -0.34375 1.34375 -0.34375 L 1.421875 -0.359375 L 1.4375 -0.046875 C 1.195312 0.00390625 0.984375 0.03125 0.796875 0.03125 Z M 1.0625 -0.921875 C 1.0625 -1.046875 1.039062 -1.128906 1 -1.171875 C 0.96875 -1.222656 0.90625 -1.25 0.8125 -1.25 C 0.707031 -1.25 0.632812 -1.222656 0.59375 -1.171875 C 0.550781 -1.117188 0.53125 -1.035156 0.53125 -0.921875 Z M 1.0625 -0.921875 "/></g></g></g><g fill="#000000" fill-opacity="1"><g transform="translate(11.049726, 13.292395)"><g><path d="M 0.1875 0 Z M 0.1875 -1.5625 L 0.609375 -1.5625 L 0.609375 0 L 0.1875 0 Z M 0.1875 -2.1875 L 0.609375 -2.1875 L 0.609375 -1.765625 L 0.1875 -1.765625 Z M 0.1875 -2.1875 "/></g></g></g><g fill="#000000" fill-opacity="1"><g transform="translate(11.851625, 13.292395)"><g><path d="M 0.75 0.03125 C 0.53125 0.03125 0.367188 -0.03125 0.265625 -0.15625 C 0.171875 -0.28125 0.125 -0.488281 0.125 -0.78125 C 0.125 -1.0625 0.171875 -1.265625 0.265625 -1.390625 C 0.367188 -1.523438 0.539062 -1.59375 0.78125 -1.59375 C 0.84375 -1.59375 0.910156 -1.585938 0.984375 -1.578125 C 1.054688 -1.566406 1.148438 -1.550781 1.265625 -1.53125 L 1.265625 -1.1875 C 1.085938 -1.207031 0.960938 -1.21875 0.890625 -1.21875 C 0.796875 -1.21875 0.722656 -1.203125 0.671875 -1.171875 C 0.617188 -1.148438 0.582031 -1.109375 0.5625 -1.046875 C 0.550781 -0.984375 0.546875 -0.894531 0.546875 -0.78125 C 0.546875 -0.664062 0.550781 -0.578125 0.5625 -0.515625 C 0.582031 -0.453125 0.617188 -0.40625 0.671875 -0.375 C 0.722656 -0.34375 0.800781 -0.328125 0.90625 -0.328125 L 1.265625 -0.359375 L 1.265625 -0.03125 C 1.046875 0.0078125 0.875 0.03125 0.75 0.03125 Z M 0.75 0.03125 "/></g></g></g><g fill="#000000" fill-opacity="1"><g transform="translate(13.237852, 13.292395)"><g><path d="M 0.1875 0 Z M 0.1875 -1.5625 L 0.609375 -1.5625 L 0.609375 0 L 0.1875 0 Z M 0.1875 -2.1875 L 0.609375 -2.1875 L 0.609375 -1.765625 L 0.1875 -1.765625 Z M 0.1875 -2.1875 "/></g></g></g><g fill="#000000" fill-opacity="1"><g transform="translate(14.039751, 13.292395)"><g><path d="M 0.796875 0.03125 C 0.554688 0.03125 0.378906 -0.0234375 0.265625 -0.140625 C 0.160156 -0.265625 0.109375 -0.460938 0.109375 -0.734375 C 0.109375 -1.023438 0.164062 -1.238281 0.28125 -1.375 C 0.394531 -1.519531 0.570312 -1.59375 0.8125 -1.59375 C 1.03125 -1.59375 1.195312 -1.53125 1.3125 -1.40625 C 1.425781 -1.289062 1.484375 -1.117188 1.484375 -0.890625 L 1.453125 -0.59375 L 0.53125 -0.59375 C 0.539062 -0.519531 0.554688 -0.460938 0.578125 -0.421875 C 0.597656 -0.390625 0.628906 -0.363281 0.671875 -0.34375 C 0.722656 -0.332031 0.796875 -0.328125 0.890625 -0.328125 C 0.953125 -0.328125 1.03125 -0.328125 1.125 -0.328125 C 1.21875 -0.335938 1.289062 -0.34375 1.34375 -0.34375 L 1.421875 -0.359375 L 1.4375 -0.046875 C 1.195312 0.00390625 0.984375 0.03125 0.796875 0.03125 Z M 1.0625 -0.921875 C 1.0625 -1.046875 1.039062 -1.128906 1 -1.171875 C 0.96875 -1.222656 0.90625 -1.25 0.8125 -1.25 C 0.707031 -1.25 0.632812 -1.222656 0.59375 -1.171875 C 0.550781 -1.117188 0.53125 -1.035156 0.53125 -0.921875 Z M 1.0625 -0.921875 "/></g></g></g><g fill="#000000" fill-opacity="1"><g transform="translate(15.624899, 13.292395)"><g><path d="M 0.1875 -1.5625 L 0.609375 -1.5625 L 0.609375 -1.46875 C 0.679688 -1.507812 0.75 -1.539062 0.8125 -1.5625 C 0.875 -1.582031 0.941406 -1.59375 1.015625 -1.59375 C 1.203125 -1.59375 1.335938 -1.53125 1.421875 -1.40625 C 1.503906 -1.28125 1.546875 -1.09375 1.546875 -0.84375 L 1.546875 0 L 1.125 0 L 1.125 -0.828125 C 1.125 -0.972656 1.101562 -1.070312 1.0625 -1.125 C 1.03125 -1.1875 0.96875 -1.21875 0.875 -1.21875 C 0.8125 -1.21875 0.734375 -1.203125 0.640625 -1.171875 L 0.609375 -1.15625 L 0.609375 0 L 0.1875 0 Z M 0.1875 -1.5625 "/></g></g></g><g fill="#000000" fill-opacity="1"><g transform="translate(17.343698, 13.292395)"><g><path d="M 0.703125 0.03125 C 0.492188 0.03125 0.34375 -0.03125 0.25 -0.15625 C 0.164062 -0.289062 0.125 -0.488281 0.125 -0.75 C 0.125 -1.039062 0.171875 -1.253906 0.265625 -1.390625 C 0.367188 -1.523438 0.53125 -1.59375 0.75 -1.59375 C 0.820312 -1.59375 0.9375 -1.578125 1.09375 -1.546875 L 1.09375 -2.171875 L 1.515625 -2.171875 L 1.515625 0 L 1.09375 0 L 1.09375 -0.0625 C 1.007812 -0.0195312 0.9375 0.00390625 0.875 0.015625 C 0.820312 0.0234375 0.765625 0.03125 0.703125 0.03125 Z M 0.796875 -0.328125 C 0.867188 -0.328125 0.953125 -0.34375 1.046875 -0.375 L 1.09375 -0.375 L 1.09375 -1.203125 C 0.988281 -1.222656 0.898438 -1.234375 0.828125 -1.234375 C 0.722656 -1.234375 0.648438 -1.195312 0.609375 -1.125 C 0.566406 -1.050781 0.546875 -0.929688 0.546875 -0.765625 C 0.546875 -0.609375 0.5625 -0.492188 0.59375 -0.421875 C 0.632812 -0.359375 0.703125 -0.328125 0.796875 -0.328125 Z M 0.796875 -0.328125 "/></g></g></g><g fill="#000000" fill-opacity="1"><g transform="translate(19.050063, 13.292395)"><g><path d="M 0.1875 0 Z M 0.1875 -1.5625 L 0.609375 -1.5625 L 0.609375 0 L 0.1875 0 Z M 0.1875 -2.1875 L 0.609375 -2.1875 L 0.609375 -1.765625 L 0.1875 -1.765625 Z M 0.1875 -2.1875 "/></g></g></g><g fill="#000000" fill-opacity="1"><g transform="translate(19.851962, 13.292395)"><g><path d="M 0.734375 0.03125 C 0.597656 0.03125 0.429688 0.015625 0.234375 -0.015625 L 0.140625 -0.03125 L 0.15625 -0.390625 C 0.40625 -0.347656 0.585938 -0.328125 0.703125 -0.328125 C 0.773438 -0.328125 0.832031 -0.335938 0.875 -0.359375 C 0.914062 -0.378906 0.9375 -0.410156 0.9375 -0.453125 C 0.9375 -0.492188 0.914062 -0.523438 0.875 -0.546875 C 0.832031 -0.566406 0.765625 -0.582031 0.671875 -0.59375 C 0.628906 -0.601562 0.601562 -0.609375 0.59375 -0.609375 C 0.488281 -0.628906 0.398438 -0.648438 0.328125 -0.671875 C 0.265625 -0.703125 0.210938 -0.75 0.171875 -0.8125 C 0.128906 -0.875 0.109375 -0.957031 0.109375 -1.0625 C 0.109375 -1.238281 0.160156 -1.367188 0.265625 -1.453125 C 0.378906 -1.546875 0.53125 -1.59375 0.71875 -1.59375 C 0.832031 -1.59375 1 -1.570312 1.21875 -1.53125 L 1.3125 -1.515625 L 1.3125 -1.171875 C 1.0625 -1.203125 0.875 -1.21875 0.75 -1.21875 C 0.675781 -1.21875 0.617188 -1.207031 0.578125 -1.1875 C 0.546875 -1.175781 0.53125 -1.148438 0.53125 -1.109375 C 0.53125 -1.066406 0.550781 -1.035156 0.59375 -1.015625 C 0.632812 -0.992188 0.703125 -0.976562 0.796875 -0.96875 L 0.90625 -0.953125 C 1.0625 -0.921875 1.175781 -0.867188 1.25 -0.796875 C 1.320312 -0.734375 1.359375 -0.628906 1.359375 -0.484375 C 1.359375 -0.304688 1.304688 -0.175781 1.203125 -0.09375 C 1.097656 -0.0078125 0.941406 0.03125 0.734375 0.03125 Z M 0.734375 0.03125 "/></g></g></g><g fill="#000000" fill-opacity="1"><g transform="translate(21.319003, 13.292395)"><g/></g></g><g fill="#000000" fill-opacity="1"><g transform="translate(22.002792, 13.292395)"><g><path d="M 0.265625 -1.203125 L 0.09375 -1.203125 L 0.09375 -1.5625 L 0.265625 -1.5625 L 0.265625 -1.625 C 0.265625 -1.769531 0.28125 -1.882812 0.3125 -1.96875 C 0.34375 -2.0625 0.390625 -2.125 0.453125 -2.15625 C 0.515625 -2.195312 0.601562 -2.21875 0.71875 -2.21875 L 1.078125 -2.1875 L 1.0625 -1.828125 L 0.8125 -1.84375 C 0.769531 -1.84375 0.738281 -1.820312 0.71875 -1.78125 C 0.695312 -1.738281 0.6875 -1.6875 0.6875 -1.625 L 0.6875 -1.5625 L 1.0625 -1.5625 L 1.0625 -1.203125 L 0.6875 -1.203125 L 0.6875 0 L 0.265625 0 Z M 0.265625 -1.203125 "/></g></g></g><g fill="#000000" fill-opacity="1"><g transform="translate(23.112395, 13.292395)"><g><path d="M 0.578125 0.03125 C 0.253906 0.03125 0.09375 -0.132812 0.09375 -0.46875 C 0.09375 -0.632812 0.132812 -0.753906 0.21875 -0.828125 C 0.300781 -0.898438 0.441406 -0.941406 0.640625 -0.953125 L 0.96875 -0.96875 L 0.96875 -1.0625 C 0.96875 -1.125 0.953125 -1.164062 0.921875 -1.1875 C 0.898438 -1.21875 0.851562 -1.234375 0.78125 -1.234375 C 0.71875 -1.234375 0.625 -1.226562 0.5 -1.21875 C 0.375 -1.21875 0.273438 -1.21875 0.203125 -1.21875 L 0.1875 -1.5 C 0.40625 -1.5625 0.617188 -1.59375 0.828125 -1.59375 C 1.023438 -1.59375 1.164062 -1.550781 1.25 -1.46875 C 1.34375 -1.382812 1.390625 -1.25 1.390625 -1.0625 L 1.390625 -0.421875 C 1.390625 -0.367188 1.394531 -0.332031 1.40625 -0.3125 C 1.425781 -0.300781 1.453125 -0.289062 1.484375 -0.28125 L 1.46875 0.03125 C 1.363281 0.03125 1.28125 0.0234375 1.21875 0.015625 C 1.15625 0.00390625 1.09375 -0.0234375 1.03125 -0.078125 C 0.875 -0.00390625 0.722656 0.03125 0.578125 0.03125 Z M 0.65625 -0.296875 C 0.738281 -0.296875 0.828125 -0.3125 0.921875 -0.34375 L 0.96875 -0.34375 L 0.96875 -0.6875 L 0.6875 -0.65625 C 0.570312 -0.644531 0.515625 -0.582031 0.515625 -0.46875 C 0.515625 -0.351562 0.5625 -0.296875 0.65625 -0.296875 Z M 0.65625 -0.296875 "/></g></g></g><g fill="#000000" fill-opacity="1"><g transform="translate(24.700653, 13.292395)"><g><path d="M 0.75 0.03125 C 0.53125 0.03125 0.367188 -0.03125 0.265625 -0.15625 C 0.171875 -0.28125 0.125 -0.488281 0.125 -0.78125 C 0.125 -1.0625 0.171875 -1.265625 0.265625 -1.390625 C 0.367188 -1.523438 0.539062 -1.59375 0.78125 -1.59375 C 0.84375 -1.59375 0.910156 -1.585938 0.984375 -1.578125 C 1.054688 -1.566406 1.148438 -1.550781 1.265625 -1.53125 L 1.265625 -1.1875 C 1.085938 -1.207031 0.960938 -1.21875 0.890625 -1.21875 C 0.796875 -1.21875 0.722656 -1.203125 0.671875 -1.171875 C 0.617188 -1.148438 0.582031 -1.109375 0.5625 -1.046875 C 0.550781 -0.984375 0.546875 -0.894531 0.546875 -0.78125 C 0.546875 -0.664062 0.550781 -0.578125 0.5625 -0.515625 C 0.582031 -0.453125 0.617188 -0.40625 0.671875 -0.375 C 0.722656 -0.34375 0.800781 -0.328125 0.90625 -0.328125 L 1.265625 -0.359375 L 1.265625 -0.03125 C 1.046875 0.0078125 0.875 0.03125 0.75 0.03125 Z M 0.75 0.03125 "/></g></g></g><g fill="#000000" fill-opacity="1"><g transform="translate(26.08688, 13.292395)"><g><path d="M 0.1875 0 Z M 0.1875 -1.5625 L 0.609375 -1.5625 L 0.609375 0 L 0.1875 0 Z M 0.1875 -2.1875 L 0.609375 -2.1875 L 0.609375 -1.765625 L 0.1875 -1.765625 Z M 0.1875 -2.1875 "/></g></g></g><g fill="#000000" fill-opacity="1"><g transform="translate(26.888779, 13.292395)"><g><path d="M 0.21875 -2.171875 L 0.625 -2.171875 L 0.625 0 L 0.21875 0 Z M 0.21875 -2.171875 "/></g></g></g><g fill="#000000" fill-opacity="1"><g transform="translate(27.727975, 13.292395)"><g><path d="M 0.1875 0 Z M 0.1875 -1.5625 L 0.609375 -1.5625 L 0.609375 0 L 0.1875 0 Z M 0.1875 -2.1875 L 0.609375 -2.1875 L 0.609375 -1.765625 L 0.1875 -1.765625 Z M 0.1875 -2.1875 "/></g></g></g><g fill="#000000" fill-opacity="1"><g transform="translate(28.529874, 13.292395)"><g><path d="M 0.734375 0.03125 C 0.597656 0.03125 0.429688 0.015625 0.234375 -0.015625 L 0.140625 -0.03125 L 0.15625 -0.390625 C 0.40625 -0.347656 0.585938 -0.328125 0.703125 -0.328125 C 0.773438 -0.328125 0.832031 -0.335938 0.875 -0.359375 C 0.914062 -0.378906 0.9375 -0.410156 0.9375 -0.453125 C 0.9375 -0.492188 0.914062 -0.523438 0.875 -0.546875 C 0.832031 -0.566406 0.765625 -0.582031 0.671875 -0.59375 C 0.628906 -0.601562 0.601562 -0.609375 0.59375 -0.609375 C 0.488281 -0.628906 0.398438 -0.648438 0.328125 -0.671875 C 0.265625 -0.703125 0.210938 -0.75 0.171875 -0.8125 C 0.128906 -0.875 0.109375 -0.957031 0.109375 -1.0625 C 0.109375 -1.238281 0.160156 -1.367188 0.265625 -1.453125 C 0.378906 -1.546875 0.53125 -1.59375 0.71875 -1.59375 C 0.832031 -1.59375 1 -1.570312 1.21875 -1.53125 L 1.3125 -1.515625 L 1.3125 -1.171875 C 1.0625 -1.203125 0.875 -1.21875 0.75 -1.21875 C 0.675781 -1.21875 0.617188 -1.207031 0.578125 -1.1875 C 0.546875 -1.175781 0.53125 -1.148438 0.53125 -1.109375 C 0.53125 -1.066406 0.550781 -1.035156 0.59375 -1.015625 C 0.632812 -0.992188 0.703125 -0.976562 0.796875 -0.96875 L 0.90625 -0.953125 C 1.0625 -0.921875 1.175781 -0.867188 1.25 -0.796875 C 1.320312 -0.734375 1.359375 -0.628906 1.359375 -0.484375 C 1.359375 -0.304688 1.304688 -0.175781 1.203125 -0.09375 C 1.097656 -0.0078125 0.941406 0.03125 0.734375 0.03125 Z M 0.734375 0.03125 "/></g></g></g><g fill="#000000" fill-opacity="1"><g transform="translate(29.996916, 13.292395)"><g/></g></g><g fill="#000000" fill-opacity="1"><g transform="translate(30.680704, 13.292395)"><g><path d="M 0.1875 0 Z M 0.1875 -1.5625 L 0.609375 -1.5625 L 0.609375 0 L 0.1875 0 Z M 0.1875 -2.1875 L 0.609375 -2.1875 L 0.609375 -1.765625 L 0.1875 -1.765625 Z M 0.1875 -2.1875 "/></g></g></g><g fill="#000000" fill-opacity="1"><g transform="translate(31.482603, 13.292395)"><g><path d="M 0.703125 0.03125 C 0.566406 0.03125 0.457031 0.00390625 0.375 -0.046875 C 0.300781 -0.0976562 0.25 -0.175781 0.21875 -0.28125 C 0.1875 -0.394531 0.171875 -0.546875 0.171875 -0.734375 L 0.171875 -1.5625 L 0.59375 -1.5625 L 0.59375 -0.734375 C 0.59375 -0.617188 0.597656 -0.535156 0.609375 -0.484375 C 0.617188 -0.429688 0.640625 -0.390625 0.671875 -0.359375 C 0.703125 -0.335938 0.753906 -0.328125 0.828125 -0.328125 C 0.867188 -0.328125 0.90625 -0.332031 0.9375 -0.34375 C 0.976562 -0.351562 1.035156 -0.367188 1.109375 -0.390625 L 1.109375 -1.5625 L 1.53125 -1.5625 L 1.53125 0 L 1.109375 0 L 1.109375 -0.09375 C 1.023438 -0.0390625 0.953125 -0.0078125 0.890625 0 C 0.828125 0.0195312 0.765625 0.03125 0.703125 0.03125 Z M 0.703125 0.03125 "/></g></g></g><g fill="#000000" fill-opacity="1"><g transform="translate(33.201402, 13.292395)"><g><path d="M 0.1875 -1.5625 L 0.609375 -1.5625 L 0.609375 -1.390625 C 0.785156 -1.492188 0.953125 -1.5625 1.109375 -1.59375 L 1.109375 -1.171875 C 0.953125 -1.140625 0.804688 -1.101562 0.671875 -1.0625 L 0.609375 -1.046875 L 0.609375 0 L 0.1875 0 Z M 0.1875 -1.5625 "/></g></g></g><g fill="#000000" fill-opacity="1"><g transform="translate(34.357629, 13.292395)"><g><path d="M 0.796875 0.03125 C 0.554688 0.03125 0.378906 -0.0234375 0.265625 -0.140625 C 0.160156 -0.265625 0.109375 -0.460938 0.109375 -0.734375 C 0.109375 -1.023438 0.164062 -1.238281 0.28125 -1.375 C 0.394531 -1.519531 0.570312 -1.59375 0.8125 -1.59375 C 1.03125 -1.59375 1.195312 -1.53125 1.3125 -1.40625 C 1.425781 -1.289062 1.484375 -1.117188 1.484375 -0.890625 L 1.453125 -0.59375 L 0.53125 -0.59375 C 0.539062 -0.519531 0.554688 -0.460938 0.578125 -0.421875 C 0.597656 -0.390625 0.628906 -0.363281 0.671875 -0.34375 C 0.722656 -0.332031 0.796875 -0.328125 0.890625 -0.328125 C 0.953125 -0.328125 1.03125 -0.328125 1.125 -0.328125 C 1.21875 -0.335938 1.289062 -0.34375 1.34375 -0.34375 L 1.421875 -0.359375 L 1.4375 -0.046875 C 1.195312 0.00390625 0.984375 0.03125 0.796875 0.03125 Z M 1.0625 -0.921875 C 1.0625 -1.046875 1.039062 -1.128906 1 -1.171875 C 0.96875 -1.222656 0.90625 -1.25 0.8125 -1.25 C 0.707031 -1.25 0.632812 -1.222656 0.59375 -1.171875 C 0.550781 -1.117188 0.53125 -1.035156 0.53125 -0.921875 Z M 1.0625 -0.921875 "/></g></g></g><g fill="#000000" fill-opacity="1"><g transform="translate(35.942776, 13.292395)"><g/></g></g><g fill="#000000" fill-opacity="1"><g transform="translate(36.626565, 13.292395)"><g><path d="M 0.796875 0.03125 C 0.554688 0.03125 0.378906 -0.0234375 0.265625 -0.140625 C 0.160156 -0.265625 0.109375 -0.460938 0.109375 -0.734375 C 0.109375 -1.023438 0.164062 -1.238281 0.28125 -1.375 C 0.394531 -1.519531 0.570312 -1.59375 0.8125 -1.59375 C 1.03125 -1.59375 1.195312 -1.53125 1.3125 -1.40625 C 1.425781 -1.289062 1.484375 -1.117188 1.484375 -0.890625 L 1.453125 -0.59375 L 0.53125 -0.59375 C 0.539062 -0.519531 0.554688 -0.460938 0.578125 -0.421875 C 0.597656 -0.390625 0.628906 -0.363281 0.671875 -0.34375 C 0.722656 -0.332031 0.796875 -0.328125 0.890625 -0.328125 C 0.953125 -0.328125 1.03125 -0.328125 1.125 -0.328125 C 1.21875 -0.335938 1.289062 -0.34375 1.34375 -0.34375 L 1.421875 -0.359375 L 1.4375 -0.046875 C 1.195312 0.00390625 0.984375 0.03125 0.796875 0.03125 Z M 1.0625 -0.921875 C 1.0625 -1.046875 1.039062 -1.128906 1 -1.171875 C 0.96875 -1.222656 0.90625 -1.25 0.8125 -1.25 C 0.707031 -1.25 0.632812 -1.222656 0.59375 -1.171875 C 0.550781 -1.117188 0.53125 -1.035156 0.53125 -0.921875 Z M 1.0625 -0.921875 "/></g></g></g><g fill="#000000" fill-opacity="1"><g transform="translate(38.211713, 13.292395)"><g><path d="M 0.578125 0.03125 C 0.253906 0.03125 0.09375 -0.132812 0.09375 -0.46875 C 0.09375 -0.632812 0.132812 -0.753906 0.21875 -0.828125 C 0.300781 -0.898438 0.441406 -0.941406 0.640625 -0.953125 L 0.96875 -0.96875 L 0.96875 -1.0625 C 0.96875 -1.125 0.953125 -1.164062 0.921875 -1.1875 C 0.898438 -1.21875 0.851562 -1.234375 0.78125 -1.234375 C 0.71875 -1.234375 0.625 -1.226562 0.5 -1.21875 C 0.375 -1.21875 0.273438 -1.21875 0.203125 -1.21875 L 0.1875 -1.5 C 0.40625 -1.5625 0.617188 -1.59375 0.828125 -1.59375 C 1.023438 -1.59375 1.164062 -1.550781 1.25 -1.46875 C 1.34375 -1.382812 1.390625 -1.25 1.390625 -1.0625 L 1.390625 -0.421875 C 1.390625 -0.367188 1.394531 -0.332031 1.40625 -0.3125 C 1.425781 -0.300781 1.453125 -0.289062 1.484375 -0.28125 L 1.46875 0.03125 C 1.363281 0.03125 1.28125 0.0234375 1.21875 0.015625 C 1.15625 0.00390625 1.09375 -0.0234375 1.03125 -0.078125 C 0.875 -0.00390625 0.722656 0.03125 0.578125 0.03125 Z M 0.65625 -0.296875 C 0.738281 -0.296875 0.828125 -0.3125 0.921875 -0.34375 L 0.96875 -0.34375 L 0.96875 -0.6875 L 0.6875 -0.65625 C 0.570312 -0.644531 0.515625 -0.582031 0.515625 -0.46875 C 0.515625 -0.351562 0.5625 -0.296875 0.65625 -0.296875 Z M 0.65625 -0.296875 "/></g></g></g><g fill="#000000" fill-opacity="1"><g transform="translate(39.799971, 13.292395)"><g><path d="M 1.078125 -0.046875 C 0.992188 -0.015625 0.925781 0.00390625 0.875 0.015625 C 0.832031 0.0234375 0.78125 0.03125 0.71875 0.03125 C 0.507812 0.03125 0.359375 -0.03125 0.265625 -0.15625 C 0.171875 -0.28125 0.125 -0.488281 0.125 -0.78125 C 0.125 -0.988281 0.144531 -1.148438 0.1875 -1.265625 C 0.238281 -1.378906 0.316406 -1.460938 0.421875 -1.515625 C 0.535156 -1.566406 0.691406 -1.59375 0.890625 -1.59375 L 1.5 -1.546875 L 1.5 0.65625 L 1.078125 0.65625 Z M 0.8125 -0.328125 C 0.882812 -0.328125 0.957031 -0.335938 1.03125 -0.359375 L 1.078125 -0.375 L 1.078125 -1.21875 C 1.003906 -1.226562 0.941406 -1.234375 0.890625 -1.234375 C 0.753906 -1.234375 0.660156 -1.195312 0.609375 -1.125 C 0.554688 -1.0625 0.53125 -0.945312 0.53125 -0.78125 C 0.53125 -0.625 0.550781 -0.507812 0.59375 -0.4375 C 0.644531 -0.363281 0.71875 -0.328125 0.8125 -0.328125 Z M 0.8125 -0.328125 "/></g></g></g><g fill="#000000" fill-opacity="1"><g transform="translate(41.48769, 13.292395)"><g><path d="M 0.703125 0.03125 C 0.566406 0.03125 0.457031 0.00390625 0.375 -0.046875 C 0.300781 -0.0976562 0.25 -0.175781 0.21875 -0.28125 C 0.1875 -0.394531 0.171875 -0.546875 0.171875 -0.734375 L 0.171875 -1.5625 L 0.59375 -1.5625 L 0.59375 -0.734375 C 0.59375 -0.617188 0.597656 -0.535156 0.609375 -0.484375 C 0.617188 -0.429688 0.640625 -0.390625 0.671875 -0.359375 C 0.703125 -0.335938 0.753906 -0.328125 0.828125 -0.328125 C 0.867188 -0.328125 0.90625 -0.332031 0.9375 -0.34375 C 0.976562 -0.351562 1.035156 -0.367188 1.109375 -0.390625 L 1.109375 -1.5625 L 1.53125 -1.5625 L 1.53125 0 L 1.109375 0 L 1.109375 -0.09375 C 1.023438 -0.0390625 0.953125 -0.0078125 0.890625 0 C 0.828125 0.0195312 0.765625 0.03125 0.703125 0.03125 Z M 0.703125 0.03125 "/></g></g></g><g fill="#000000" fill-opacity="1"><g transform="translate(43.206488, 13.292395)"><g><path d="M 0.796875 0.03125 C 0.554688 0.03125 0.378906 -0.0234375 0.265625 -0.140625 C 0.160156 -0.265625 0.109375 -0.460938 0.109375 -0.734375 C 0.109375 -1.023438 0.164062 -1.238281 0.28125 -1.375 C 0.394531 -1.519531 0.570312 -1.59375 0.8125 -1.59375 C 1.03125 -1.59375 1.195312 -1.53125 1.3125 -1.40625 C 1.425781 -1.289062 1.484375 -1.117188 1.484375 -0.890625 L 1.453125 -0.59375 L 0.53125 -0.59375 C 0.539062 -0.519531 0.554688 -0.460938 0.578125 -0.421875 C 0.597656 -0.390625 0.628906 -0.363281 0.671875 -0.34375 C 0.722656 -0.332031 0.796875 -0.328125 0.890625 -0.328125 C 0.953125 -0.328125 1.03125 -0.328125 1.125 -0.328125 C 1.21875 -0.335938 1.289062 -0.34375 1.34375 -0.34375 L 1.421875 -0.359375 L 1.4375 -0.046875 C 1.195312 0.00390625 0.984375 0.03125 0.796875 0.03125 Z M 1.0625 -0.921875 C 1.0625 -1.046875 1.039062 -1.128906 1 -1.171875 C 0.96875 -1.222656 0.90625 -1.25 0.8125 -1.25 C 0.707031 -1.25 0.632812 -1.222656 0.59375 -1.171875 C 0.550781 -1.117188 0.53125 -1.035156 0.53125 -0.921875 Z M 1.0625 -0.921875 "/></g></g></g><g fill="#000000" fill-opacity="1"><g transform="translate(44.791636, 13.292395)"><g><path d="M 0.21875 -0.421875 L 0.671875 -0.421875 L 0.390625 0.375 L 0.0625 0.375 Z M 0.21875 -0.421875 "/></g></g></g><g clip-path="url(#87f478fbfd)"><g fill="#000000" fill-opacity="1"><g transform="translate(0.29247, 17.436545)"><g><path d="M 0.1875 -1.5625 L 0.609375 -1.5625 L 0.609375 -1.46875 C 0.691406 -1.519531 0.757812 -1.550781 0.8125 -1.5625 C 0.863281 -1.582031 0.921875 -1.59375 0.984375 -1.59375 C 1.179688 -1.59375 1.328125 -1.523438 1.421875 -1.390625 C 1.523438 -1.265625 1.578125 -1.054688 1.578125 -0.765625 C 1.578125 -0.566406 1.550781 -0.410156 1.5 -0.296875 C 1.457031 -0.179688 1.382812 -0.0976562 1.28125 -0.046875 C 1.175781 0.00390625 1.039062 0.03125 0.875 0.03125 C 0.789062 0.03125 0.703125 0.0234375 0.609375 0.015625 L 0.609375 0.65625 L 0.1875 0.65625 Z M 0.828125 -0.328125 C 0.941406 -0.328125 1.023438 -0.359375 1.078125 -0.421875 C 1.128906 -0.492188 1.15625 -0.609375 1.15625 -0.765625 C 1.15625 -0.921875 1.128906 -1.035156 1.078125 -1.109375 C 1.035156 -1.179688 0.96875 -1.21875 0.875 -1.21875 C 0.800781 -1.21875 0.722656 -1.203125 0.640625 -1.171875 L 0.609375 -1.15625 L 0.609375 -0.34375 C 0.703125 -0.332031 0.773438 -0.328125 0.828125 -0.328125 Z M 0.828125 -0.328125 "/></g></g></g></g><g fill="#000000" fill-opacity="1"><g transform="translate(1.983295, 17.436545)"><g><path d="M 0.578125 0.03125 C 0.253906 0.03125 0.09375 -0.132812 0.09375 -0.46875 C 0.09375 -0.632812 0.132812 -0.753906 0.21875 -0.828125 C 0.300781 -0.898438 0.441406 -0.941406 0.640625 -0.953125 L 0.96875 -0.96875 L 0.96875 -1.0625 C 0.96875 -1.125 0.953125 -1.164062 0.921875 -1.1875 C 0.898438 -1.21875 0.851562 -1.234375 0.78125 -1.234375 C 0.71875 -1.234375 0.625 -1.226562 0.5 -1.21875 C 0.375 -1.21875 0.273438 -1.21875 0.203125 -1.21875 L 0.1875 -1.5 C 0.40625 -1.5625 0.617188 -1.59375 0.828125 -1.59375 C 1.023438 -1.59375 1.164062 -1.550781 1.25 -1.46875 C 1.34375 -1.382812 1.390625 -1.25 1.390625 -1.0625 L 1.390625 -0.421875 C 1.390625 -0.367188 1.394531 -0.332031 1.40625 -0.3125 C 1.425781 -0.300781 1.453125 -0.289062 1.484375 -0.28125 L 1.46875 0.03125 C 1.363281 0.03125 1.28125 0.0234375 1.21875 0.015625 C 1.15625 0.00390625 1.09375 -0.0234375 1.03125 -0.078125 C 0.875 -0.00390625 0.722656 0.03125 0.578125 0.03125 Z M 0.65625 -0.296875 C 0.738281 -0.296875 0.828125 -0.3125 0.921875 -0.34375 L 0.96875 -0.34375 L 0.96875 -0.6875 L 0.6875 -0.65625 C 0.570312 -0.644531 0.515625 -0.582031 0.515625 -0.46875 C 0.515625 -0.351562 0.5625 -0.296875 0.65625 -0.296875 Z M 0.65625 -0.296875 "/></g></g></g><g fill="#000000" fill-opacity="1"><g transform="translate(3.571554, 17.436545)"><g><path d="M 0.1875 -1.5625 L 0.609375 -1.5625 L 0.609375 -1.390625 C 0.785156 -1.492188 0.953125 -1.5625 1.109375 -1.59375 L 1.109375 -1.171875 C 0.953125 -1.140625 0.804688 -1.101562 0.671875 -1.0625 L 0.609375 -1.046875 L 0.609375 0 L 0.1875 0 Z M 0.1875 -1.5625 "/></g></g></g><g fill="#000000" fill-opacity="1"><g transform="translate(4.727781, 17.436545)"><g><path d="M 0.1875 0 Z M 0.1875 -1.5625 L 0.609375 -1.5625 L 0.609375 0 L 0.1875 0 Z M 0.1875 -2.1875 L 0.609375 -2.1875 L 0.609375 -1.765625 L 0.1875 -1.765625 Z M 0.1875 -2.1875 "/></g></g></g><g fill="#000000" fill-opacity="1"><g transform="translate(5.52968, 17.436545)"><g><path d="M 0.578125 0.03125 C 0.253906 0.03125 0.09375 -0.132812 0.09375 -0.46875 C 0.09375 -0.632812 0.132812 -0.753906 0.21875 -0.828125 C 0.300781 -0.898438 0.441406 -0.941406 0.640625 -0.953125 L 0.96875 -0.96875 L 0.96875 -1.0625 C 0.96875 -1.125 0.953125 -1.164062 0.921875 -1.1875 C 0.898438 -1.21875 0.851562 -1.234375 0.78125 -1.234375 C 0.71875 -1.234375 0.625 -1.226562 0.5 -1.21875 C 0.375 -1.21875 0.273438 -1.21875 0.203125 -1.21875 L 0.1875 -1.5 C 0.40625 -1.5625 0.617188 -1.59375 0.828125 -1.59375 C 1.023438 -1.59375 1.164062 -1.550781 1.25 -1.46875 C 1.34375 -1.382812 1.390625 -1.25 1.390625 -1.0625 L 1.390625 -0.421875 C 1.390625 -0.367188 1.394531 -0.332031 1.40625 -0.3125 C 1.425781 -0.300781 1.453125 -0.289062 1.484375 -0.28125 L 1.46875 0.03125 C 1.363281 0.03125 1.28125 0.0234375 1.21875 0.015625 C 1.15625 0.00390625 1.09375 -0.0234375 1.03125 -0.078125 C 0.875 -0.00390625 0.722656 0.03125 0.578125 0.03125 Z M 0.65625 -0.296875 C 0.738281 -0.296875 0.828125 -0.3125 0.921875 -0.34375 L 0.96875 -0.34375 L 0.96875 -0.6875 L 0.6875 -0.65625 C 0.570312 -0.644531 0.515625 -0.582031 0.515625 -0.46875 C 0.515625 -0.351562 0.5625 -0.296875 0.65625 -0.296875 Z M 0.65625 -0.296875 "/></g></g></g><g fill="#000000" fill-opacity="1"><g transform="translate(7.117938, 17.436545)"><g><path d="M 0.71875 0.03125 C 0.601562 0.03125 0.507812 0.015625 0.4375 -0.015625 C 0.375 -0.0546875 0.328125 -0.117188 0.296875 -0.203125 C 0.265625 -0.285156 0.25 -0.398438 0.25 -0.546875 L 0.25 -1.203125 L 0.078125 -1.203125 L 0.078125 -1.5625 L 0.25 -1.5625 L 0.25 -1.984375 L 0.671875 -1.984375 L 0.671875 -1.5625 L 1.046875 -1.5625 L 1.046875 -1.203125 L 0.671875 -1.203125 L 0.671875 -0.5625 C 0.671875 -0.476562 0.675781 -0.414062 0.6875 -0.375 C 0.707031 -0.34375 0.742188 -0.328125 0.796875 -0.328125 L 1.03125 -0.34375 L 1.0625 -0.015625 C 0.976562 0.00390625 0.910156 0.015625 0.859375 0.015625 C 0.816406 0.0234375 0.769531 0.03125 0.71875 0.03125 Z M 0.71875 0.03125 "/></g></g></g><g fill="#000000" fill-opacity="1"><g transform="translate(8.249298, 17.436545)"><g><path d="M 0.703125 0.03125 C 0.566406 0.03125 0.457031 0.00390625 0.375 -0.046875 C 0.300781 -0.0976562 0.25 -0.175781 0.21875 -0.28125 C 0.1875 -0.394531 0.171875 -0.546875 0.171875 -0.734375 L 0.171875 -1.5625 L 0.59375 -1.5625 L 0.59375 -0.734375 C 0.59375 -0.617188 0.597656 -0.535156 0.609375 -0.484375 C 0.617188 -0.429688 0.640625 -0.390625 0.671875 -0.359375 C 0.703125 -0.335938 0.753906 -0.328125 0.828125 -0.328125 C 0.867188 -0.328125 0.90625 -0.332031 0.9375 -0.34375 C 0.976562 -0.351562 1.035156 -0.367188 1.109375 -0.390625 L 1.109375 -1.5625 L 1.53125 -1.5625 L 1.53125 0 L 1.109375 0 L 1.109375 -0.09375 C 1.023438 -0.0390625 0.953125 -0.0078125 0.890625 0 C 0.828125 0.0195312 0.765625 0.03125 0.703125 0.03125 Z M 0.703125 0.03125 "/></g></g></g><g fill="#000000" fill-opacity="1"><g transform="translate(9.968096, 17.436545)"><g><path d="M 0.1875 -1.5625 L 0.609375 -1.5625 L 0.609375 -1.390625 C 0.785156 -1.492188 0.953125 -1.5625 1.109375 -1.59375 L 1.109375 -1.171875 C 0.953125 -1.140625 0.804688 -1.101562 0.671875 -1.0625 L 0.609375 -1.046875 L 0.609375 0 L 0.1875 0 Z M 0.1875 -1.5625 "/></g></g></g><g fill="#000000" fill-opacity="1"><g transform="translate(11.124323, 17.436545)"><g/></g></g><g fill="#000000" fill-opacity="1"><g transform="translate(11.808112, 17.436545)"><g><path d="M 0.1875 -1.5625 L 0.609375 -1.5625 L 0.609375 -1.46875 C 0.679688 -1.507812 0.742188 -1.539062 0.796875 -1.5625 C 0.859375 -1.582031 0.921875 -1.59375 0.984375 -1.59375 C 1.054688 -1.59375 1.125 -1.578125 1.1875 -1.546875 C 1.257812 -1.523438 1.316406 -1.492188 1.359375 -1.453125 C 1.460938 -1.492188 1.554688 -1.523438 1.640625 -1.546875 C 1.722656 -1.578125 1.8125 -1.59375 1.90625 -1.59375 C 2.09375 -1.59375 2.226562 -1.53125 2.3125 -1.40625 C 2.394531 -1.289062 2.4375 -1.101562 2.4375 -0.84375 L 2.4375 0 L 2.015625 0 L 2.015625 -0.828125 C 2.015625 -0.960938 2 -1.0625 1.96875 -1.125 C 1.9375 -1.1875 1.878906 -1.21875 1.796875 -1.21875 C 1.734375 -1.21875 1.65625 -1.203125 1.5625 -1.171875 L 1.515625 -1.15625 C 1.515625 -1.019531 1.515625 -0.90625 1.515625 -0.8125 L 1.515625 0 L 1.109375 0 L 1.109375 -0.796875 C 1.109375 -0.910156 1.097656 -0.992188 1.078125 -1.046875 C 1.066406 -1.109375 1.046875 -1.148438 1.015625 -1.171875 C 0.984375 -1.203125 0.9375 -1.21875 0.875 -1.21875 C 0.8125 -1.21875 0.734375 -1.203125 0.640625 -1.171875 L 0.609375 -1.15625 L 0.609375 0 L 0.1875 0 Z M 0.1875 -1.5625 "/></g></g></g><g fill="#000000" fill-opacity="1"><g transform="translate(14.415836, 17.436545)"><g><path d="M 0.578125 0.03125 C 0.253906 0.03125 0.09375 -0.132812 0.09375 -0.46875 C 0.09375 -0.632812 0.132812 -0.753906 0.21875 -0.828125 C 0.300781 -0.898438 0.441406 -0.941406 0.640625 -0.953125 L 0.96875 -0.96875 L 0.96875 -1.0625 C 0.96875 -1.125 0.953125 -1.164062 0.921875 -1.1875 C 0.898438 -1.21875 0.851562 -1.234375 0.78125 -1.234375 C 0.71875 -1.234375 0.625 -1.226562 0.5 -1.21875 C 0.375 -1.21875 0.273438 -1.21875 0.203125 -1.21875 L 0.1875 -1.5 C 0.40625 -1.5625 0.617188 -1.59375 0.828125 -1.59375 C 1.023438 -1.59375 1.164062 -1.550781 1.25 -1.46875 C 1.34375 -1.382812 1.390625 -1.25 1.390625 -1.0625 L 1.390625 -0.421875 C 1.390625 -0.367188 1.394531 -0.332031 1.40625 -0.3125 C 1.425781 -0.300781 1.453125 -0.289062 1.484375 -0.28125 L 1.46875 0.03125 C 1.363281 0.03125 1.28125 0.0234375 1.21875 0.015625 C 1.15625 0.00390625 1.09375 -0.0234375 1.03125 -0.078125 C 0.875 -0.00390625 0.722656 0.03125 0.578125 0.03125 Z M 0.65625 -0.296875 C 0.738281 -0.296875 0.828125 -0.3125 0.921875 -0.34375 L 0.96875 -0.34375 L 0.96875 -0.6875 L 0.6875 -0.65625 C 0.570312 -0.644531 0.515625 -0.582031 0.515625 -0.46875 C 0.515625 -0.351562 0.5625 -0.296875 0.65625 -0.296875 Z M 0.65625 -0.296875 "/></g></g></g><g fill="#000000" fill-opacity="1"><g transform="translate(16.004094, 17.436545)"><g><path d="M 0.46875 -0.78125 L 0.046875 -1.5625 L 0.484375 -1.5625 L 0.734375 -1.078125 L 0.984375 -1.5625 L 1.4375 -1.5625 L 0.984375 -0.796875 L 1.4375 0 L 0.984375 0 L 0.734375 -0.46875 L 0.484375 0 L 0.046875 0 Z M 0.46875 -0.78125 "/></g></g></g><g fill="#000000" fill-opacity="1"><g transform="translate(17.477348, 17.436545)"><g><path d="M 0.1875 0 Z M 0.1875 -1.5625 L 0.609375 -1.5625 L 0.609375 0 L 0.1875 0 Z M 0.1875 -2.1875 L 0.609375 -2.1875 L 0.609375 -1.765625 L 0.1875 -1.765625 Z M 0.1875 -2.1875 "/></g></g></g><g fill="#000000" fill-opacity="1"><g transform="translate(18.279247, 17.436545)"><g><path d="M 0.1875 -1.5625 L 0.609375 -1.5625 L 0.609375 -1.46875 C 0.679688 -1.507812 0.742188 -1.539062 0.796875 -1.5625 C 0.859375 -1.582031 0.921875 -1.59375 0.984375 -1.59375 C 1.054688 -1.59375 1.125 -1.578125 1.1875 -1.546875 C 1.257812 -1.523438 1.316406 -1.492188 1.359375 -1.453125 C 1.460938 -1.492188 1.554688 -1.523438 1.640625 -1.546875 C 1.722656 -1.578125 1.8125 -1.59375 1.90625 -1.59375 C 2.09375 -1.59375 2.226562 -1.53125 2.3125 -1.40625 C 2.394531 -1.289062 2.4375 -1.101562 2.4375 -0.84375 L 2.4375 0 L 2.015625 0 L 2.015625 -0.828125 C 2.015625 -0.960938 2 -1.0625 1.96875 -1.125 C 1.9375 -1.1875 1.878906 -1.21875 1.796875 -1.21875 C 1.734375 -1.21875 1.65625 -1.203125 1.5625 -1.171875 L 1.515625 -1.15625 C 1.515625 -1.019531 1.515625 -0.90625 1.515625 -0.8125 L 1.515625 0 L 1.109375 0 L 1.109375 -0.796875 C 1.109375 -0.910156 1.097656 -0.992188 1.078125 -1.046875 C 1.066406 -1.109375 1.046875 -1.148438 1.015625 -1.171875 C 0.984375 -1.203125 0.9375 -1.21875 0.875 -1.21875 C 0.8125 -1.21875 0.734375 -1.203125 0.640625 -1.171875 L 0.609375 -1.15625 L 0.609375 0 L 0.1875 0 Z M 0.1875 -1.5625 "/></g></g></g><g fill="#000000" fill-opacity="1"><g transform="translate(20.886972, 17.436545)"><g><path d="M 0.796875 0.03125 C 0.554688 0.03125 0.378906 -0.0234375 0.265625 -0.140625 C 0.160156 -0.265625 0.109375 -0.460938 0.109375 -0.734375 C 0.109375 -1.023438 0.164062 -1.238281 0.28125 -1.375 C 0.394531 -1.519531 0.570312 -1.59375 0.8125 -1.59375 C 1.03125 -1.59375 1.195312 -1.53125 1.3125 -1.40625 C 1.425781 -1.289062 1.484375 -1.117188 1.484375 -0.890625 L 1.453125 -0.59375 L 0.53125 -0.59375 C 0.539062 -0.519531 0.554688 -0.460938 0.578125 -0.421875 C 0.597656 -0.390625 0.628906 -0.363281 0.671875 -0.34375 C 0.722656 -0.332031 0.796875 -0.328125 0.890625 -0.328125 C 0.953125 -0.328125 1.03125 -0.328125 1.125 -0.328125 C 1.21875 -0.335938 1.289062 -0.34375 1.34375 -0.34375 L 1.421875 -0.359375 L 1.4375 -0.046875 C 1.195312 0.00390625 0.984375 0.03125 0.796875 0.03125 Z M 1.0625 -0.921875 C 1.0625 -1.046875 1.039062 -1.128906 1 -1.171875 C 0.96875 -1.222656 0.90625 -1.25 0.8125 -1.25 C 0.707031 -1.25 0.632812 -1.222656 0.59375 -1.171875 C 0.550781 -1.117188 0.53125 -1.035156 0.53125 -0.921875 Z M 1.0625 -0.921875 "/></g></g></g><g fill="#000000" fill-opacity="1"><g transform="translate(22.470147, 17.436545)"><g/></g></g></g></g></g></svg>